<svg width="0" height="0" class="hidden">
  <symbol  xmlns="http://www.w3.org/2000/svg" viewBox="0 0 24 24" id="arrow_left_outline_24">
    <path d="M11.5319 4.25911C11.8563 4.579 11.8868 5.08447 11.6208 5.43913L11.5409 5.53187L6.05 11.1L20.1 11.1C20.5971 11.1 21 11.5029 21 12C21 12.4588 20.6567 12.8375 20.2129 12.893L20.1 12.9H6.05L11.5409 18.4681C11.8608 18.7926 11.884 19.2984 11.6131 19.6493L11.5319 19.7409C11.2074 20.0608 10.7016 20.084 10.3507 19.8131L10.2591 19.7319L3.25911 12.6319C2.94242 12.3107 2.91603 11.8109 3.17994 11.4599L3.25911 11.3681L10.2591 4.26813C10.6081 3.91418 11.1779 3.91014 11.5319 4.25911Z" ></path>
  </symbol>
  <symbol  xmlns="http://www.w3.org/2000/svg" viewBox="0 0 24 24" id="arrow_right_outline_24">
    <path d="M12.4681 4.25911C12.1437 4.579 12.1132 5.08447 12.3792 5.43913L12.4591 5.53187L17.95 11.1L3.9 11.1C3.40294 11.1 3 11.5029 3 12C3 12.4588 3.34334 12.8375 3.78711 12.893L3.9 12.9H17.95L12.4591 18.4681C12.1392 18.7926 12.116 19.2984 12.3869 19.6493L12.4681 19.7409C12.7926 20.0608 13.2985 20.084 13.6493 19.8131L13.7409 19.7319L20.7409 12.6319C21.0576 12.3107 21.084 11.8109 20.8201 11.4599L20.7409 11.3681L13.7409 4.26813C13.3919 3.91418 12.8221 3.91014 12.4681 4.25911Z" ></path>
  </symbol>
  <symbol  xmlns="http://www.w3.org/2000/svg" viewBox="0 0 24 24" id="chevron_down_small_24">
    <path fill-rule="evenodd" clip-rule="evenodd" d="M17.7364 9.26363C17.3849 8.91216 16.8151 8.91216 16.4636 9.26363L12 13.7272L7.53639 9.26363C7.18492 8.91216 6.61507 8.91216 6.2636 9.26363C5.91213 9.6151 5.91213 10.185 6.2636 10.5364L11.3636 15.6364C11.7151 15.9879 12.285 15.9879 12.6364 15.6364L17.7364 10.5364C18.0879 10.1849 18.0879 9.6151 17.7364 9.26363Z" ></path>
  </symbol>
  <symbol  xmlns="http://www.w3.org/2000/svg" viewBox="0 0 16 16" id="error_circle_outline_16">
    <path fill-rule="evenodd" clip-rule="evenodd" d="M8 2.5C4.96243 2.5 2.5 4.96243 2.5 8C2.5 11.0376 4.96243 13.5 8 13.5C11.0376 13.5 13.5 11.0376 13.5 8C13.5 4.96243 11.0376 2.5 8 2.5ZM1 8C1 4.13401 4.13401 1 8 1C11.866 1 15 4.13401 15 8C15 11.866 11.866 15 8 15C4.13401 15 1 11.866 1 8Z" ></path>
    <path fill-rule="evenodd" clip-rule="evenodd" d="M8 4C8.41421 4 8.75 4.33579 8.75 4.75V8.25C8.75 8.66421 8.41421 9 8 9C7.58579 9 7.25 8.66421 7.25 8.25V4.75C7.25 4.33579 7.58579 4 8 4Z" ></path>
    <path d="M8.89998 11.1C8.89998 11.5971 8.49703 12 7.99998 12C7.50292 12 7.09998 11.5971 7.09998 11.1C7.09998 10.6029 7.50292 10.2 7.99998 10.2C8.49703 10.2 8.89998 10.6029 8.89998 11.1Z" ></path>
  </symbol>
  <symbol  xmlns="http://www.w3.org/2000/svg" viewBox="0 0 20 20" id="hide_outline_20">
    <path fill-rule="evenodd" clip-rule="evenodd" d="M9.96409 5.50008C9.54988 5.50183 9.21268 5.16746 9.21093 4.75325C9.20918 4.33904 9.54354 4.00184 9.95775 4.00009C12.004 3.99576 14.1048 4.55116 15.8761 5.57766C17.5665 6.55736 19 8.06774 19 10C19 11.003 18.6069 11.9011 18.0013 12.6586C17.7427 12.9821 17.2707 13.0347 16.9472 12.7761C16.6237 12.5174 16.5711 12.0454 16.8298 11.7219C17.2721 11.1686 17.5 10.5911 17.5 10C17.5 8.86976 16.6418 7.75514 15.1239 6.87546C13.5824 5.9821 11.7449 5.49632 9.96409 5.50008Z" ></path>
    <path fill-rule="evenodd" clip-rule="evenodd" d="M4.12393 14.4223C5.84342 15.4189 8.03582 16 10 16C11.6051 16 13.3554 15.6123 14.8731 14.9338L15.7197 15.7803C16.0126 16.0732 16.4874 16.0732 16.7803 15.7803C17.0732 15.4874 17.0732 15.0126 16.7803 14.7197L5.28033 3.21967C4.98744 2.92678 4.51256 2.92678 4.21967 3.21967C3.92678 3.51256 3.92678 3.98744 4.21967 4.28033L5.04335 5.10401C4.06903 5.54898 3.17342 6.1239 2.4732 6.81589C1.60643 7.67246 1 8.75167 1 10C1 11.9323 2.43347 13.4426 4.12393 14.4223ZM8.5 10C8.5 10.8284 9.17157 11.5 10 11.5C10.3988 11.5 10.7612 11.3444 11.0299 11.0906L8.90944 8.9701C8.65562 9.23878 8.5 9.60122 8.5 10ZM7 10C7 11.6569 8.34315 13 10 13C10.813 13 11.5505 12.6766 12.0908 12.1514L13.7252 13.7859C12.5236 14.2443 11.2017 14.5 10 14.5C8.29751 14.5 6.36491 13.9874 4.87607 13.1245C3.3582 12.2449 2.5 11.1302 2.5 10C2.5 9.26893 2.85091 8.5515 3.52757 7.8828C4.18791 7.23023 5.121 6.66551 6.18727 6.24793L7.84857 7.90923C7.3234 8.44953 7 9.187 7 10Z" ></path>
  </symbol>
  <symbol  xmlns="http://www.w3.org/2000/svg" viewBox="0 0 24 24" id="like_24">
    <path d="M12.111 5.69952C13.2389 4.64334 14.5405 4.06981 15.9918 4.00599L16.2656 4C19.4228 4 22 6.56027 22 9.71723C22 12.676 20.9647 14.144 16.4269 17.7784L15.4937 18.5182L13.1296 20.3607C12.4655 20.8783 11.5345 20.8783 10.8704 20.3607L8.18242 18.263C3.12733 14.2688 2 12.8046 2 9.71723C2 6.56027 4.57716 4 7.73438 4C9.2746 4 10.6626 4.57606 11.8723 5.69501L11.994 5.813L12.111 5.69952Z" ></path>
  </symbol>
  <symbol  xmlns="http://www.w3.org/2000/svg" viewBox="0 0 24 24" id="like_outline_24">
    <path d="M15.9918 4.00599C14.5405 4.06981 13.2389 4.64334 12.111 5.69952L11.994 5.813L11.8723 5.69501C10.6626 4.57606 9.2746 4 7.73438 4C4.57716 4 2 6.56027 2 9.71723C2 12.8046 3.12733 14.2688 8.18242 18.263L10.8704 20.3607C11.5345 20.8783 12.4655 20.8783 13.1296 20.3607L15.4937 18.5182L16.4269 17.7784C20.9647 14.144 22 12.676 22 9.71723C22 6.56027 19.4228 4 16.2656 4L15.9918 4.00599ZM16.2656 5.8C18.4314 5.8 20.2 7.55704 20.2 9.71723L20.1951 10.0108C20.1192 12.1674 19.1332 13.352 14.686 16.8631L12.0231 18.941C12.0095 18.9515 11.9905 18.9515 11.9769 18.941L9.6128 17.0984L8.73899 16.4066C4.59678 13.0977 3.8 11.9668 3.8 9.71723C3.8 7.55704 5.56863 5.8 7.73438 5.8C9.06729 5.8 10.2408 6.41758 11.3038 7.71525C11.6662 8.15771 12.3441 8.15426 12.702 7.70812C13.7389 6.41565 14.9087 5.8 16.2656 5.8Z" ></path>
  </symbol>
  <symbol  xmlns="http://www.w3.org/2000/svg" viewBox="0 0 24 24" id="menu_outline_24">
    <path d="M21 11H3C2.44772 11 2 11.4477 2 12C2 12.5523 2.44772 13 3 13H21C21.5523 13 22 12.5523 22 12C22 11.4477 21.5523 11 21 11ZM21 4H3C2.44772 4 2 4.44772 2 5C2 5.55228 2.44772 6 3 6H21C21.5523 6 22 5.55228 22 5C22 4.44772 21.5523 4 21 4ZM3 20H21C21.5523 20 22 19.5523 22 19C22 18.4477 21.5523 18 21 18H3C2.44772 18 2 18.4477 2 19C2 19.5523 2.44772 20 3 20Z" ></path>
  </symbol>
  <symbol  xmlns="http://www.w3.org/2000/svg" viewBox="0 0 24 24" id="more_info">
    <path d="M16.1 9C16.5971 9 17 8.59706 17 8.1C17 7.60294 16.5971 7.2 16.1 7.2H7.8999C7.40285 7.2 6.9999 7.60294 6.9999 8.1C6.9999 8.59706 7.40285 9 7.8999 9H16.1Z" ></path>
    <path d="M17 12C17 12.4971 16.5971 12.9 16.1 12.9H7.9C7.40294 12.9 7 12.4971 7 12C7 11.5029 7.40294 11.1 7.9 11.1H16.1C16.5971 11.1 17 11.5029 17 12Z" ></path>
    <path d="M11.1 16.8004C11.5971 16.8004 12 16.3975 12 15.9004C12 15.4034 11.5971 15.0004 11.1 15.0004H7.9C7.40294 15.0004 7 15.4034 7 15.9004C7 16.3975 7.40294 16.8004 7.9 16.8004H11.1Z" ></path>
    <path fill-rule="evenodd" clip-rule="evenodd" d="M14.5384 3H9.4616C8.5141 2.99999 7.74834 2.99998 7.12792 3.05067C6.48863 3.10291 5.92481 3.21341 5.40244 3.47957C4.57453 3.90141 3.90141 4.57453 3.47957 5.40244C3.21341 5.92481 3.10291 6.48863 3.05067 7.12792C2.99998 7.74834 2.99999 8.51409 3 9.46158V14.5384C2.99999 15.4859 2.99998 16.2517 3.05067 16.8721C3.10291 17.5114 3.21341 18.0752 3.47957 18.5976C3.90141 19.4255 4.57453 20.0986 5.40244 20.5204C5.92481 20.7866 6.48863 20.8971 7.12792 20.9493C7.74834 21 8.51409 21 9.46159 21H14.5384C15.4859 21 16.2517 21 16.8721 20.9493C17.5114 20.8971 18.0752 20.7866 18.5976 20.5204C19.4255 20.0986 20.0986 19.4255 20.5204 18.5976C20.7866 18.0752 20.8971 17.5114 20.9493 16.8721C21 16.2517 21 15.4859 21 14.5384V9.46159C21 8.51409 21 7.74834 20.9493 7.12792C20.8971 6.48863 20.7866 5.92481 20.5204 5.40244C20.0986 4.57453 19.4255 3.90141 18.5976 3.47957C18.0752 3.21341 17.5114 3.10291 16.8721 3.05067C16.2517 2.99998 15.4859 2.99999 14.5384 3ZM6.21963 5.08338C6.44595 4.96807 6.74652 4.88783 7.2745 4.8447C7.81298 4.8007 8.50506 4.8 9.5 4.8H14.5C15.4949 4.8 16.187 4.8007 16.7255 4.8447C17.2535 4.88783 17.5541 4.96807 17.7804 5.08338C18.2696 5.33265 18.6673 5.7304 18.9166 6.21963C19.0319 6.44595 19.1122 6.74652 19.1553 7.2745C19.1993 7.81298 19.2 8.50506 19.2 9.5V14.5C19.2 15.4949 19.1993 16.187 19.1553 16.7255C19.1122 17.2535 19.0319 17.5541 18.9166 17.7804C18.6673 18.2696 18.2696 18.6673 17.7804 18.9166C17.5541 19.0319 17.2535 19.1122 16.7255 19.1553C16.187 19.1993 15.4949 19.2 14.5 19.2H9.5C8.50506 19.2 7.81298 19.1993 7.2745 19.1553C6.74652 19.1122 6.44595 19.0319 6.21963 18.9166C5.7304 18.6673 5.33265 18.2696 5.08338 17.7804C4.96807 17.5541 4.88783 17.2535 4.8447 16.7255C4.8007 16.187 4.8 15.4949 4.8 14.5V9.5C4.8 8.50506 4.8007 7.81298 4.8447 7.2745C4.88783 6.74652 4.96807 6.44595 5.08338 6.21963C5.33265 5.7304 5.7304 5.33265 6.21963 5.08338Z" ></path>
  </symbol>
  <symbol  xmlns="http://www.w3.org/2000/svg" viewBox="0 0 16 16" id="cancel_16">
    <path d="M12.7364 3.2636C13.0879 3.61507 13.0879 4.18492 12.7364 4.53639L9.27299 7.99999L12.7364 11.4636C13.0586 11.7858 13.0854 12.2915 12.8169 12.6442L12.7364 12.7364C12.3849 13.0879 11.8151 13.0879 11.4636 12.7364L7.99999 9.27299L4.53639 12.7364C4.18492 13.0879 3.61507 13.0879 3.2636 12.7364C2.91212 12.3849 2.91212 11.8151 3.2636 11.4636L6.72699 7.99999L3.2636 4.53639C2.94141 4.21421 2.91457 3.70853 3.18305 3.35576L3.2636 3.2636C3.61507 2.91212 4.18492 2.91212 4.53639 3.2636L7.99999 6.72699L11.4636 3.2636C11.8151 2.91212 12.3849 2.91212 12.7364 3.2636Z" ></path>
  </symbol>
  <symbol  xmlns="http://www.w3.org/2000/svg" viewBox="0 0 24 24" id="search_outline_24">
    <path fill-rule="evenodd" clip-rule="evenodd" d="M10.75 3.5C6.74594 3.5 3.5 6.74594 3.5 10.75C3.5 14.7541 6.74594 18 10.75 18C12.4277 18 13.9722 17.4302 15.2007 16.4735L19.4636 20.7364C19.8151 21.0879 20.3849 21.0879 20.7364 20.7364C21.0878 20.3849 21.0878 19.8151 20.7364 19.4636L16.4735 15.2007C17.4302 13.9722 18 12.4277 18 10.75C18 6.74594 14.7541 3.5 10.75 3.5ZM10.75 5.3C7.74005 5.3 5.3 7.74005 5.3 10.75C5.3 13.76 7.74005 16.2 10.75 16.2C13.76 16.2 16.2 13.76 16.2 10.75C16.2 7.74005 13.76 5.3 10.75 5.3Z" ></path>
  </symbol>
  <symbol  xmlns="http://www.w3.org/2000/svg" viewBox="0 0 24 24" id="selected_24">
    <path fill-rule="evenodd" clip-rule="evenodd" d="M20.2071 6.29289C20.5976 6.68342 20.5976 7.31658 20.2071 7.70711L9.70711 18.2071C9.31658 18.5976 8.68342 18.5976 8.29289 18.2071L4.29289 14.2071C3.90237 13.8166 3.90237 13.1834 4.29289 12.7929C4.68342 12.4024 5.31658 12.4024 5.70711 12.7929L9 16.0858L18.7929 6.29289C19.1834 5.90237 19.8166 5.90237 20.2071 6.29289Z" ></path>
  </symbol>
  <symbol  xmlns="http://www.w3.org/2000/svg" viewBox="0 0 24 24" id="shopping_cart_outline_24">
    <path fill-rule="evenodd" clip-rule="evenodd" d="M3.49341 4.93373C3.40764 4.90883 3.28285 4.90001 2.65894 4.90001H1.99998C1.50292 4.90001 1.09998 4.49707 1.09998 4.00001C1.09998 3.50296 1.50292 3.10001 1.99998 3.10001H2.65894L2.76035 3.09993C3.22271 3.09938 3.6295 3.0989 3.99535 3.20513C4.72552 3.41715 5.32944 3.93259 5.65355 4.62038C5.72386 4.76959 5.77563 4.92954 5.81757 5.10001H18.1095L18.1357 5.10001C18.5664 5.1 18.9285 5.1 19.224 5.11741C19.5291 5.13538 19.8303 5.17445 20.1226 5.28376C21.1188 5.65633 21.8311 6.5443 21.9787 7.59756C22.022 7.90659 21.9948 8.20913 21.9461 8.51084C21.899 8.80311 21.8205 9.1566 21.727 9.577L21.7213 9.60265L21.0876 12.4545L21.0627 12.5667C20.9224 13.2001 20.8146 13.6865 20.5959 14.0974C20.1579 14.9204 19.4012 15.5274 18.5028 15.7764C18.0543 15.9008 17.5561 15.9005 16.9073 15.9001L16.7924 15.9H9.48717L9.36485 15.9001C8.67889 15.9005 8.15299 15.9009 7.68557 15.7651C6.74875 15.4931 5.97391 14.8318 5.55807 13.9494C5.35059 13.5091 5.26831 12.9896 5.16098 12.3121L5.14182 12.1913L4.18969 6.20648C4.09166 5.59032 4.06335 5.46846 4.02528 5.38768C3.92132 5.16707 3.72761 5.00174 3.49341 4.93373ZM6.12266 6.90001L6.91946 11.9085C7.05548 12.7635 7.10279 13.0048 7.18634 13.1821C7.38203 13.5973 7.74666 13.9085 8.18751 14.0365C8.37573 14.0912 8.62144 14.1 9.48717 14.1H16.7924C17.6099 14.1 17.8411 14.092 18.022 14.0419C18.4447 13.9247 18.8008 13.639 19.007 13.2517C19.0951 13.0861 19.1531 12.8621 19.3305 12.064L19.9642 9.21218C20.0648 8.75941 20.1314 8.45799 20.1691 8.22439C20.2062 7.9943 20.203 7.89659 20.1961 7.84736C20.1401 7.44784 19.8699 7.11103 19.4921 6.96971C19.4455 6.9523 19.3508 6.928 19.1182 6.9143C18.882 6.90038 18.5733 6.90001 18.1095 6.90001H6.12266ZM6.99997 19.25C6.99997 18.2835 7.78347 17.5 8.74997 17.5C9.71647 17.5 10.5 18.2835 10.5 19.25C10.5 20.2165 9.71647 21 8.74997 21C7.78347 21 6.99997 20.2165 6.99997 19.25ZM17.25 17.5C16.2835 17.5 15.5 18.2835 15.5 19.25C15.5 20.2165 16.2835 21 17.25 21C18.2165 21 19 20.2165 19 19.25C19 18.2835 18.2165 17.5 17.25 17.5Z" ></path>
  </symbol>
  <symbol  xmlns="http://www.w3.org/2000/svg" viewBox="0 0 20 20" id="view_outline_20">
    <path fill-rule="evenodd" clip-rule="evenodd" d="M13 10C13 11.6569 11.6569 13 10 13C8.34315 13 7 11.6569 7 10C7 8.34315 8.34315 7 10 7C11.6569 7 13 8.34315 13 10ZM11.5 10C11.5 10.8284 10.8284 11.5 10 11.5C9.17157 11.5 8.5 10.8284 8.5 10C8.5 9.17157 9.17157 8.5 10 8.5C10.8284 8.5 11.5 9.17157 11.5 10Z" ></path>
    <path fill-rule="evenodd" clip-rule="evenodd" d="M19 10C19 13.5 14 16 10 16C6 16 1 13.5 1 10C1 6.5 6 4 10 4C14 4 19 6.5 19 10ZM17.5 10C17.5 10.9827 16.7806 12.0838 15.2215 13.0303C13.7054 13.9508 11.7245 14.5 10 14.5C8.27549 14.5 6.29462 13.9508 4.77847 13.0303C3.21944 12.0838 2.5 10.9827 2.5 10C2.5 9.01731 3.21944 7.91623 4.77847 6.96968C6.29462 6.04916 8.27549 5.5 10 5.5C11.7245 5.5 13.7054 6.04916 15.2215 6.96968C16.7806 7.91623 17.5 9.01731 17.5 10Z" ></path>
  </symbol>
  <symbol  xmlns="http://www.w3.org/2000/svg" viewBox="0 0 16 16" id="warning_triangle_outline_16">
    <path fill-rule="evenodd" clip-rule="evenodd" d="M8.39338 3.2337C8.22196 2.92495 7.77795 2.92495 7.60653 3.2337L2.55534 12.3316C2.38881 12.6315 2.6057 13 2.94877 13H13.0512C13.3943 13 13.6112 12.6315 13.4446 12.3316L8.39338 3.2337ZM6.2951 2.50559C7.03793 1.16765 8.96198 1.16765 9.70481 2.50558L14.7561 11.6034C15.4777 12.9032 14.5378 14.5 13.0512 14.5H2.94877C1.46215 14.5 0.522292 12.9032 1.24391 11.6034L6.2951 2.50559ZM8 5.49999C8.41421 5.49999 8.75 5.83578 8.75 6.24999V8.74999C8.75 9.16421 8.41421 9.49999 8 9.49999C7.58579 9.49999 7.25 9.16421 7.25 8.74999V6.24999C7.25 5.83578 7.58579 5.49999 8 5.49999ZM8 12C8.41421 12 8.75 11.6642 8.75 11.25C8.75 10.8358 8.41421 10.5 8 10.5C7.58579 10.5 7.25 10.8358 7.25 11.25C7.25 11.6642 7.58579 12 8 12Z" ></path>
  </symbol>
</svg>