<svg width="0" height="0" class="hidden">
  <symbol  xmlns="http://www.w3.org/2000/svg" viewBox="0 0 24 24" id="graph_outline_24">
    <path d="M16.0001 4.00458C16.4972 4.00458 16.9001 4.40752 16.9001 4.90458V20.1046C16.9001 20.6016 16.4972 21.0046 16.0001 21.0046C15.503 21.0046 15.1001 20.6016 15.1001 20.1046V4.90458C15.1001 4.40752 15.503 4.00458 16.0001 4.00458Z" ></path>
    <path d="M4.0001 6.00232C4.49716 6.00232 4.9001 6.40526 4.9001 6.90232V20.1C4.9001 20.5971 4.49716 21 4.0001 21C3.50304 21 3.1001 20.5971 3.1001 20.1V6.90232C3.1001 6.40526 3.50304 6.00232 4.0001 6.00232Z" ></path>
    <path d="M8.0001 9.00403C8.49715 9.00403 8.9001 9.40697 8.9001 9.90403V20.104C8.9001 20.6011 8.49715 21.004 8.0001 21.004C7.50304 21.004 7.1001 20.6011 7.1001 20.104V9.90403C7.1001 9.40697 7.50304 9.00403 8.0001 9.00403Z" ></path>
    <path d="M12.9001 16.9023C12.9001 16.4053 12.4972 16.0023 12.0001 16.0023C11.503 16.0023 11.1001 16.4053 11.1001 16.9023V20.1023C11.1001 20.5994 11.503 21.0023 12.0001 21.0023C12.4972 21.0023 12.9001 20.5994 12.9001 20.1023V16.9023Z" ></path>
    <path d="M20.9001 13.9046C20.9001 13.4075 20.4972 13.0046 20.0001 13.0046C19.503 13.0046 19.1001 13.4075 19.1001 13.9046V20.1046C19.1001 20.6016 19.503 21.0046 20.0001 21.0046C20.4972 21.0046 20.9001 20.6016 20.9001 20.1046L20.9001 13.9046Z" ></path>
  </symbol>
  <symbol  xmlns="http://www.w3.org/2000/svg" viewBox="0 0 24 24" id="chevron_left_small_24">
    <path fill-rule="evenodd" clip-rule="evenodd" d="M14.7364 17.7364C15.0879 17.3849 15.0879 16.815 14.7364 16.4636L10.2728 12L14.7364 7.53636C15.0879 7.18489 15.0879 6.61504 14.7364 6.26357C14.3849 5.9121 13.8151 5.9121 13.4636 6.26357L8.36361 11.3636C8.01214 11.7151 8.01214 12.2849 8.36361 12.6364L13.4636 17.7364C13.8151 18.0878 14.3849 18.0878 14.7364 17.7364Z" ></path>
  </symbol>
  <symbol  xmlns="http://www.w3.org/2000/svg" viewBox="0 0 24 24" id="user_circle_outline_24">
    <path fill-rule="evenodd" clip-rule="evenodd" d="M11.9999 8.8C11.061 8.8 10.2999 9.56112 10.2999 10.5C10.2999 11.4389 11.061 12.2 11.9999 12.2C12.9388 12.2 13.6999 11.4389 13.6999 10.5C13.6999 9.56112 12.9388 8.8 11.9999 8.8ZM8.49988 10.5C8.49988 8.567 10.0669 7 11.9999 7C13.9329 7 15.4999 8.567 15.4999 10.5C15.4999 12.433 13.9329 14 11.9999 14C10.0669 14 8.49988 12.433 8.49988 10.5Z" ></path>
    <path fill-rule="evenodd" clip-rule="evenodd" d="M12 2.09998C9.26641 2.09998 6.79018 3.20906 4.99962 4.99962C3.20906 6.79018 2.09998 9.26641 2.09998 12C2.09998 14.7335 3.20906 17.2098 4.99962 19.0003C6.79018 20.7909 9.26641 21.9 12 21.9C14.7335 21.9 17.2098 20.7909 19.0003 19.0003C20.7909 17.2098 21.9 14.7335 21.9 12C21.9 9.26641 20.7909 6.79018 19.0003 4.99962C17.2098 3.20906 14.7335 2.09998 12 2.09998ZM16.3824 18.8134C15.1751 17.8648 13.6541 17.3 12 17.3C10.3458 17.3 8.82482 17.8648 7.61756 18.8134C8.88098 19.6279 10.3849 20.1 12 20.1C13.615 20.1 15.119 19.6279 16.3824 18.8134ZM6.27241 6.27241C7.73921 4.80561 9.76297 3.89998 12 3.89998C14.237 3.89998 16.2607 4.80561 17.7275 6.27241C19.1943 7.73921 20.1 9.76297 20.1 12C20.1 14.1986 19.2252 16.1912 17.8026 17.6515C16.2451 16.3113 14.2166 15.5 12 15.5C9.78338 15.5 7.75489 16.3113 6.19736 17.6515C4.77478 16.1912 3.89997 14.1986 3.89997 12C3.89997 9.76297 4.80561 7.73921 6.27241 6.27241ZM8.49988 10.5C8.49988 8.567 10.0669 7 11.9999 7C13.9329 7 15.4999 8.567 15.4999 10.5C15.4999 12.433 13.9329 14 11.9999 14C10.0669 14 8.49988 12.433 8.49988 10.5ZM11.9999 8.8C11.061 8.8 10.2999 9.56112 10.2999 10.5C10.2999 11.4389 11.061 12.2 11.9999 12.2C12.9388 12.2 13.6999 11.4389 13.6999 10.5C13.6999 9.56112 12.9388 8.8 11.9999 8.8Z" ></path>
  </symbol>
  <symbol  xmlns="http://www.w3.org/2000/svg" viewBox="0 0 24 24" id="arrow_right_outline_24">
    <path d="M12.4681 4.25911C12.1437 4.579 12.1132 5.08447 12.3792 5.43913L12.4591 5.53187L17.95 11.1L3.9 11.1C3.40294 11.1 3 11.5029 3 12C3 12.4588 3.34334 12.8375 3.78711 12.893L3.9 12.9H17.95L12.4591 18.4681C12.1392 18.7926 12.116 19.2984 12.3869 19.6493L12.4681 19.7409C12.7926 20.0608 13.2985 20.084 13.6493 19.8131L13.7409 19.7319L20.7409 12.6319C21.0576 12.3107 21.084 11.8109 20.8201 11.4599L20.7409 11.3681L13.7409 4.26813C13.3919 3.91418 12.8221 3.91014 12.4681 4.25911Z" ></path>
  </symbol>
  <symbol xmlns="http://www.w3.org/2000/svg" viewBox="0 0 24 24" id="circle">
    <circle cx="12" cy="12" r="10"  stroke="currentColor" stroke-linecap="round" stroke-linejoin="round" stroke-width="2"></circle>
  </symbol>
  <symbol  xmlns="http://www.w3.org/2000/svg" viewBox="0 0 24 24" id="home">
    <path fill-rule="evenodd" clip-rule="evenodd" d="M12.1854 4.85073C12.0649 4.81157 11.9351 4.81157 11.8146 4.85073C11.8013 4.85503 11.7452 4.87474 11.5965 5.00102C11.4397 5.13411 11.2468 5.32598 10.9393 5.6335L5.57365 10.9992C5.19746 11.3754 5.11717 11.4638 5.06209 11.5537C5.00178 11.6522 4.95734 11.7594 4.93039 11.8717C4.90578 11.9742 4.9 12.0935 4.9 12.6255V17.6C4.9 18.0349 4.9007 18.307 4.91744 18.5119C4.93333 18.7064 4.95907 18.76 4.96539 18.7724C5.02292 18.8853 5.11471 18.9771 5.2276 19.0346C5.24001 19.041 5.29362 19.0667 5.48809 19.0826C5.69307 19.0993 5.96511 19.1 6.4 19.1H9.1V15.9C9.1 14.2984 10.3984 13 12 13C13.6016 13 14.9 14.2984 14.9 15.9V19.1H17.6C18.0349 19.1 18.3069 19.0993 18.5119 19.0826C18.7064 19.0667 18.76 19.041 18.7724 19.0346C18.8853 18.9771 18.9771 18.8853 19.0346 18.7724C19.0409 18.76 19.0667 18.7064 19.0825 18.5119C19.0993 18.307 19.1 18.0349 19.1 17.6V12.6255C19.1 12.0935 19.0942 11.9742 19.0696 11.8717C19.0427 11.7594 18.9982 11.6521 18.9379 11.5537C18.8828 11.4638 18.8025 11.3754 18.4263 10.9992L13.0607 5.6335C12.7531 5.32598 12.5603 5.13411 12.4035 5.00102C12.2548 4.87474 12.1987 4.85503 12.1854 4.85073ZM11.2584 3.13883C11.7404 2.98221 12.2596 2.98221 12.7416 3.13883C13.0709 3.2458 13.3345 3.43025 13.5684 3.6288C13.7881 3.81527 14.0331 4.06029 14.3099 4.33714L19.6991 9.7264C19.718 9.74531 19.7368 9.76401 19.7553 9.78253C20.0463 10.0731 20.2919 10.3182 20.4727 10.6132C20.6317 10.8727 20.7488 11.1556 20.8199 11.4515C20.9006 11.7879 20.9004 12.1349 20.9 12.5461C20.9 12.5723 20.9 12.5988 20.9 12.6255V17.6334C20.9 18.0249 20.9 18.3714 20.8766 18.6585C20.8516 18.9643 20.7956 19.2812 20.6384 19.5896C20.4083 20.0412 20.0412 20.4084 19.5896 20.6385C19.2811 20.7956 18.9643 20.8516 18.6585 20.8766C18.3713 20.9001 18.0248 20.9001 17.6333 20.9H14.1887C13.5874 20.9 13.1 20.4126 13.1 19.8114V15.9C13.1 15.2925 12.6075 14.8 12 14.8C11.3925 14.8 10.9 15.2925 10.9 15.9V19.8114C10.9 20.4126 10.4126 20.9 9.81134 20.9H6.36666C5.97515 20.9001 5.62866 20.9001 5.34151 20.8766C5.03573 20.8516 4.71887 20.7956 4.41042 20.6385C3.95883 20.4084 3.59168 20.0412 3.36158 19.5896C3.20441 19.2812 3.1484 18.9643 3.12342 18.6585C3.09996 18.3714 3.09998 18.0249 3.09999 17.6334L3.1 12.6255C3.1 12.5988 3.09998 12.5723 3.09995 12.5461C3.09963 12.1349 3.09936 11.7879 3.18012 11.4515C3.25116 11.1556 3.36834 10.8727 3.52734 10.6132C3.7081 10.3183 3.95368 10.0731 4.24467 9.78253C4.26321 9.76401 4.28194 9.74531 4.30086 9.7264L9.69011 4.33713C9.96694 4.06028 10.2119 3.81526 10.4316 3.62881C10.6655 3.43025 10.9291 3.2458 11.2584 3.13883Z" ></path>
  </symbol>
  <symbol  xmlns="http://www.w3.org/2000/svg" viewBox="0 0 16 16" id="cancel_16">
    <path d="M12.7364 3.2636C13.0879 3.61507 13.0879 4.18492 12.7364 4.53639L9.27299 7.99999L12.7364 11.4636C13.0586 11.7858 13.0854 12.2915 12.8169 12.6442L12.7364 12.7364C12.3849 13.0879 11.8151 13.0879 11.4636 12.7364L7.99999 9.27299L4.53639 12.7364C4.18492 13.0879 3.61507 13.0879 3.2636 12.7364C2.91212 12.3849 2.91212 11.8151 3.2636 11.4636L6.72699 7.99999L3.2636 4.53639C2.94141 4.21421 2.91457 3.70853 3.18305 3.35576L3.2636 3.2636C3.61507 2.91212 4.18492 2.91212 4.53639 3.2636L7.99999 6.72699L11.4636 3.2636C11.8151 2.91212 12.3849 2.91212 12.7364 3.2636Z" ></path>
  </symbol>
  <symbol  xmlns="http://www.w3.org/2000/svg" viewBox="0 0 16 16" id="warning_triangle_outline_16">
    <path fill-rule="evenodd" clip-rule="evenodd" d="M8.39338 3.2337C8.22196 2.92495 7.77795 2.92495 7.60653 3.2337L2.55534 12.3316C2.38881 12.6315 2.6057 13 2.94877 13H13.0512C13.3943 13 13.6112 12.6315 13.4446 12.3316L8.39338 3.2337ZM6.2951 2.50559C7.03793 1.16765 8.96198 1.16765 9.70481 2.50558L14.7561 11.6034C15.4777 12.9032 14.5378 14.5 13.0512 14.5H2.94877C1.46215 14.5 0.522292 12.9032 1.24391 11.6034L6.2951 2.50559ZM8 5.49999C8.41421 5.49999 8.75 5.83578 8.75 6.24999V8.74999C8.75 9.16421 8.41421 9.49999 8 9.49999C7.58579 9.49999 7.25 9.16421 7.25 8.74999V6.24999C7.25 5.83578 7.58579 5.49999 8 5.49999ZM8 12C8.41421 12 8.75 11.6642 8.75 11.25C8.75 10.8358 8.41421 10.5 8 10.5C7.58579 10.5 7.25 10.8358 7.25 11.25C7.25 11.6642 7.58579 12 8 12Z" ></path>
  </symbol>
  <symbol  xmlns="http://www.w3.org/2000/svg" viewBox="0 0 24 24" id="arrow_left_outline_24">
    <path d="M11.5319 4.25911C11.8563 4.579 11.8868 5.08447 11.6208 5.43913L11.5409 5.53187L6.05 11.1L20.1 11.1C20.5971 11.1 21 11.5029 21 12C21 12.4588 20.6567 12.8375 20.2129 12.893L20.1 12.9H6.05L11.5409 18.4681C11.8608 18.7926 11.884 19.2984 11.6131 19.6493L11.5319 19.7409C11.2074 20.0608 10.7016 20.084 10.3507 19.8131L10.2591 19.7319L3.25911 12.6319C2.94242 12.3107 2.91603 11.8109 3.17994 11.4599L3.25911 11.3681L10.2591 4.26813C10.6081 3.91418 11.1779 3.91014 11.5319 4.25911Z" ></path>
  </symbol>
  <symbol  xmlns="http://www.w3.org/2000/svg" viewBox="0 0 24 24" id="sun_outline_24">
    <path d="M12.002 1C12.4993 1 12.9024 1.40294 12.9024 1.9V4.1C12.9024 4.59706 12.4993 5 12.002 5C11.5048 5 11.1017 4.59706 11.1017 4.1V1.9C11.1017 1.40294 11.5048 1 12.002 1Z" ></path>
    <path d="M12.0044 19C12.5016 19 12.9047 19.4029 12.9047 19.9V22.1C12.9047 22.5971 12.5016 23 12.0044 23C11.5072 23 11.1041 22.5971 11.1041 22.1V19.9C11.1041 19.4029 11.5072 19 12.0044 19Z" ></path>
    <path d="M4.66111 8.88423C5.09174 9.13276 5.64237 8.98528 5.891 8.55481C6.13962 8.12435 5.99208 7.57392 5.56145 7.32539L3.35506 6.12786C2.92443 5.87934 2.37379 6.02682 2.12517 6.45729C1.87655 6.88775 2.02409 7.43818 2.45472 7.68671L4.66111 8.88423Z" ></path>
    <path d="M21.8836 17.5469C21.635 17.9773 21.0844 18.1248 20.6537 17.8763L18.4492 16.6836C18.0186 16.4351 17.8711 15.8846 18.1197 15.4542C18.3683 15.0237 18.9189 14.8762 19.3496 15.1247L21.5541 16.3174C21.9847 16.566 22.1322 17.1164 21.8836 17.5469Z" ></path>
    <path d="M18.4545 7.31745C18.0239 7.56598 17.8764 8.11641 18.125 8.54688C18.3736 8.97734 18.9242 9.12483 19.3549 8.8763L21.5521 7.68048C21.9828 7.43195 22.1303 6.88152 21.8817 6.45105C21.6331 6.02059 21.0824 5.8731 20.6518 6.12163L18.4545 7.31745Z" ></path>
    <path d="M2.1284 17.5469C1.87978 17.1164 2.02732 16.566 2.45795 16.3175L4.6491 15.1167C5.07972 14.8682 5.63036 15.0157 5.87898 15.4462C6.12761 15.8766 5.98006 16.4271 5.54944 16.6756L3.35829 17.8763C2.92766 18.1248 2.37702 17.9773 2.1284 17.5469Z" ></path>
    <path fill-rule="evenodd" clip-rule="evenodd" d="M12.0044 7C10.6232 7 9.37272 7.55964 8.46756 8.46447C7.56239 9.36929 7.00254 10.6193 7.00254 12C7.00254 13.3807 7.56239 14.6307 8.46756 15.5355C9.37272 16.4404 10.6232 17 12.0044 17C13.3857 17 14.6361 16.4404 15.5413 15.5355C16.4465 14.6307 17.0063 13.3807 17.0063 12C17.0063 10.6193 16.4465 9.36929 15.5413 8.46447C14.6361 7.55964 13.3857 7 12.0044 7ZM9.74083 9.73726C10.3221 9.1562 11.1199 8.8 12.0044 8.8C12.8889 8.8 13.6867 9.1562 14.268 9.73726C14.8493 10.3183 15.2056 11.1158 15.2056 12C15.2056 12.8842 14.8493 13.6817 14.268 14.2627C13.6867 14.8438 12.8889 15.2 12.0044 15.2C11.1199 15.2 10.3221 14.8438 9.74083 14.2627C9.15955 13.6817 8.80322 12.8842 8.80322 12C8.80322 11.1158 9.15955 10.3183 9.74083 9.73726Z" ></path>
  </symbol>
  <symbol  xmlns="http://www.w3.org/2000/svg" viewBox="0 0 24 24" id="shopping_cart_outline_24">
    <path fill-rule="evenodd" clip-rule="evenodd" d="M3.49341 4.93373C3.40764 4.90883 3.28285 4.90001 2.65894 4.90001H1.99998C1.50292 4.90001 1.09998 4.49707 1.09998 4.00001C1.09998 3.50296 1.50292 3.10001 1.99998 3.10001H2.65894L2.76035 3.09993C3.22271 3.09938 3.6295 3.0989 3.99535 3.20513C4.72552 3.41715 5.32944 3.93259 5.65355 4.62038C5.72386 4.76959 5.77563 4.92954 5.81757 5.10001H18.1095L18.1357 5.10001C18.5664 5.1 18.9285 5.1 19.224 5.11741C19.5291 5.13538 19.8303 5.17445 20.1226 5.28376C21.1188 5.65633 21.8311 6.5443 21.9787 7.59756C22.022 7.90659 21.9948 8.20913 21.9461 8.51084C21.899 8.80311 21.8205 9.1566 21.727 9.577L21.7213 9.60265L21.0876 12.4545L21.0627 12.5667C20.9224 13.2001 20.8146 13.6865 20.5959 14.0974C20.1579 14.9204 19.4012 15.5274 18.5028 15.7764C18.0543 15.9008 17.5561 15.9005 16.9073 15.9001L16.7924 15.9H9.48717L9.36485 15.9001C8.67889 15.9005 8.15299 15.9009 7.68557 15.7651C6.74875 15.4931 5.97391 14.8318 5.55807 13.9494C5.35059 13.5091 5.26831 12.9896 5.16098 12.3121L5.14182 12.1913L4.18969 6.20648C4.09166 5.59032 4.06335 5.46846 4.02528 5.38768C3.92132 5.16707 3.72761 5.00174 3.49341 4.93373ZM6.12266 6.90001L6.91946 11.9085C7.05548 12.7635 7.10279 13.0048 7.18634 13.1821C7.38203 13.5973 7.74666 13.9085 8.18751 14.0365C8.37573 14.0912 8.62144 14.1 9.48717 14.1H16.7924C17.6099 14.1 17.8411 14.092 18.022 14.0419C18.4447 13.9247 18.8008 13.639 19.007 13.2517C19.0951 13.0861 19.1531 12.8621 19.3305 12.064L19.9642 9.21218C20.0648 8.75941 20.1314 8.45799 20.1691 8.22439C20.2062 7.9943 20.203 7.89659 20.1961 7.84736C20.1401 7.44784 19.8699 7.11103 19.4921 6.96971C19.4455 6.9523 19.3508 6.928 19.1182 6.9143C18.882 6.90038 18.5733 6.90001 18.1095 6.90001H6.12266ZM6.99997 19.25C6.99997 18.2835 7.78347 17.5 8.74997 17.5C9.71647 17.5 10.5 18.2835 10.5 19.25C10.5 20.2165 9.71647 21 8.74997 21C7.78347 21 6.99997 20.2165 6.99997 19.25ZM17.25 17.5C16.2835 17.5 15.5 18.2835 15.5 19.25C15.5 20.2165 16.2835 21 17.25 21C18.2165 21 19 20.2165 19 19.25C19 18.2835 18.2165 17.5 17.25 17.5Z" ></path>
  </symbol>
  <symbol  xmlns="http://www.w3.org/2000/svg" viewBox="0 0 24 24" id="menu_outline_24">
    <path d="M21 11H3C2.44772 11 2 11.4477 2 12C2 12.5523 2.44772 13 3 13H21C21.5523 13 22 12.5523 22 12C22 11.4477 21.5523 11 21 11ZM21 4H3C2.44772 4 2 4.44772 2 5C2 5.55228 2.44772 6 3 6H21C21.5523 6 22 5.55228 22 5C22 4.44772 21.5523 4 21 4ZM3 20H21C21.5523 20 22 19.5523 22 19C22 18.4477 21.5523 18 21 18H3C2.44772 18 2 18.4477 2 19C2 19.5523 2.44772 20 3 20Z" ></path>
  </symbol>
  <symbol  xmlns="http://www.w3.org/2000/svg" viewBox="0 0 24 24" id="done_outline_24">
    <path fill-rule="evenodd" clip-rule="evenodd" d="M20.7364 5.6636C21.0878 6.01507 21.0878 6.58492 20.7364 6.93639L9.6364 18.0364C9.46761 18.2052 9.2387 18.3 9 18.3C8.76131 18.3 8.53239 18.2052 8.3636 18.0364L3.2636 12.9364C2.91213 12.5849 2.91213 12.0151 3.2636 11.6636C3.61508 11.3121 4.18492 11.3121 4.5364 11.6636L9 16.1272L19.4636 5.6636C19.8151 5.31213 20.3849 5.31213 20.7364 5.6636Z" ></path>
  </symbol>
  <symbol  xmlns="http://www.w3.org/2000/svg" viewBox="0 0 16 16" id="error_circle_outline_16">
    <path fill-rule="evenodd" clip-rule="evenodd" d="M8 2.5C4.96243 2.5 2.5 4.96243 2.5 8C2.5 11.0376 4.96243 13.5 8 13.5C11.0376 13.5 13.5 11.0376 13.5 8C13.5 4.96243 11.0376 2.5 8 2.5ZM1 8C1 4.13401 4.13401 1 8 1C11.866 1 15 4.13401 15 8C15 11.866 11.866 15 8 15C4.13401 15 1 11.866 1 8Z" ></path>
    <path fill-rule="evenodd" clip-rule="evenodd" d="M8 4C8.41421 4 8.75 4.33579 8.75 4.75V8.25C8.75 8.66421 8.41421 9 8 9C7.58579 9 7.25 8.66421 7.25 8.25V4.75C7.25 4.33579 7.58579 4 8 4Z" ></path>
    <path d="M8.89998 11.1C8.89998 11.5971 8.49703 12 7.99998 12C7.50292 12 7.09998 11.5971 7.09998 11.1C7.09998 10.6029 7.50292 10.2 7.99998 10.2C8.49703 10.2 8.89998 10.6029 8.89998 11.1Z" ></path>
  </symbol>
  <symbol  xmlns="http://www.w3.org/2000/svg" viewBox="0 0 24 24" id="sales">
    <path fill-rule="evenodd" clip-rule="evenodd" d="M13.4893 4.29306C15.2084 2.57403 17.9955 2.57403 19.7145 4.29306C21.4335 6.01209 21.4335 8.7992 19.7145 10.5182L18.643 11.5898C18.2914 11.9414 17.7213 11.9414 17.3696 11.5898C17.018 11.2381 17.018 10.668 17.3696 10.3164L18.4412 9.2449C19.457 8.22911 19.457 6.58218 18.4412 5.56639C17.4254 4.5506 15.7785 4.5506 14.7627 5.56639L11.2256 9.10342C10.2098 10.1192 10.2098 11.7661 11.2256 12.7819C11.5773 13.1335 11.5773 13.7036 11.2256 14.0553C10.874 14.4069 10.3039 14.4069 9.95231 14.0553C8.23328 12.3362 8.23328 9.54912 9.95231 7.83009L13.4893 4.29306ZM12.7819 9.95231C13.1335 9.60069 13.7036 9.60069 14.0553 9.95231C15.7743 11.6713 15.7743 14.4584 14.0553 16.1775L10.5182 19.7145C8.7992 21.4335 6.01209 21.4335 4.29306 19.7145C2.57403 17.9955 2.57403 15.2084 4.29306 13.4893L5.41486 12.3675C5.76648 12.0159 6.33657 12.0159 6.68819 12.3675C7.03981 12.7192 7.03981 13.2892 6.68819 13.6409L5.56639 14.7627C4.5506 15.7785 4.5506 17.4254 5.56639 18.4412C6.58218 19.457 8.22911 19.457 9.2449 18.4412L12.7819 14.9042C13.7977 13.8884 13.7977 12.2414 12.7819 11.2256C12.4303 10.874 12.4303 10.3039 12.7819 9.95231Z" ></path>
  </symbol>
  <symbol  xmlns="http://www.w3.org/2000/svg" viewBox="0 0 24 24" id="search_outline_24">
    <path fill-rule="evenodd" clip-rule="evenodd" d="M10.75 3.5C6.74594 3.5 3.5 6.74594 3.5 10.75C3.5 14.7541 6.74594 18 10.75 18C12.4277 18 13.9722 17.4302 15.2007 16.4735L19.4636 20.7364C19.8151 21.0879 20.3849 21.0879 20.7364 20.7364C21.0878 20.3849 21.0878 19.8151 20.7364 19.4636L16.4735 15.2007C17.4302 13.9722 18 12.4277 18 10.75C18 6.74594 14.7541 3.5 10.75 3.5ZM10.75 5.3C7.74005 5.3 5.3 7.74005 5.3 10.75C5.3 13.76 7.74005 16.2 10.75 16.2C13.76 16.2 16.2 13.76 16.2 10.75C16.2 7.74005 13.76 5.3 10.75 5.3Z" ></path>
  </symbol>
  <symbol  xmlns="http://www.w3.org/2000/svg" viewBox="0 0 24 24" id="more_info">
    <path d="M16.1 9C16.5971 9 17 8.59706 17 8.1C17 7.60294 16.5971 7.2 16.1 7.2H7.8999C7.40285 7.2 6.9999 7.60294 6.9999 8.1C6.9999 8.59706 7.40285 9 7.8999 9H16.1Z" ></path>
    <path d="M17 12C17 12.4971 16.5971 12.9 16.1 12.9H7.9C7.40294 12.9 7 12.4971 7 12C7 11.5029 7.40294 11.1 7.9 11.1H16.1C16.5971 11.1 17 11.5029 17 12Z" ></path>
    <path d="M11.1 16.8004C11.5971 16.8004 12 16.3975 12 15.9004C12 15.4034 11.5971 15.0004 11.1 15.0004H7.9C7.40294 15.0004 7 15.4034 7 15.9004C7 16.3975 7.40294 16.8004 7.9 16.8004H11.1Z" ></path>
    <path fill-rule="evenodd" clip-rule="evenodd" d="M14.5384 3H9.4616C8.5141 2.99999 7.74834 2.99998 7.12792 3.05067C6.48863 3.10291 5.92481 3.21341 5.40244 3.47957C4.57453 3.90141 3.90141 4.57453 3.47957 5.40244C3.21341 5.92481 3.10291 6.48863 3.05067 7.12792C2.99998 7.74834 2.99999 8.51409 3 9.46158V14.5384C2.99999 15.4859 2.99998 16.2517 3.05067 16.8721C3.10291 17.5114 3.21341 18.0752 3.47957 18.5976C3.90141 19.4255 4.57453 20.0986 5.40244 20.5204C5.92481 20.7866 6.48863 20.8971 7.12792 20.9493C7.74834 21 8.51409 21 9.46159 21H14.5384C15.4859 21 16.2517 21 16.8721 20.9493C17.5114 20.8971 18.0752 20.7866 18.5976 20.5204C19.4255 20.0986 20.0986 19.4255 20.5204 18.5976C20.7866 18.0752 20.8971 17.5114 20.9493 16.8721C21 16.2517 21 15.4859 21 14.5384V9.46159C21 8.51409 21 7.74834 20.9493 7.12792C20.8971 6.48863 20.7866 5.92481 20.5204 5.40244C20.0986 4.57453 19.4255 3.90141 18.5976 3.47957C18.0752 3.21341 17.5114 3.10291 16.8721 3.05067C16.2517 2.99998 15.4859 2.99999 14.5384 3ZM6.21963 5.08338C6.44595 4.96807 6.74652 4.88783 7.2745 4.8447C7.81298 4.8007 8.50506 4.8 9.5 4.8H14.5C15.4949 4.8 16.187 4.8007 16.7255 4.8447C17.2535 4.88783 17.5541 4.96807 17.7804 5.08338C18.2696 5.33265 18.6673 5.7304 18.9166 6.21963C19.0319 6.44595 19.1122 6.74652 19.1553 7.2745C19.1993 7.81298 19.2 8.50506 19.2 9.5V14.5C19.2 15.4949 19.1993 16.187 19.1553 16.7255C19.1122 17.2535 19.0319 17.5541 18.9166 17.7804C18.6673 18.2696 18.2696 18.6673 17.7804 18.9166C17.5541 19.0319 17.2535 19.1122 16.7255 19.1553C16.187 19.1993 15.4949 19.2 14.5 19.2H9.5C8.50506 19.2 7.81298 19.1993 7.2745 19.1553C6.74652 19.1122 6.44595 19.0319 6.21963 18.9166C5.7304 18.6673 5.33265 18.2696 5.08338 17.7804C4.96807 17.5541 4.88783 17.2535 4.8447 16.7255C4.8007 16.187 4.8 15.4949 4.8 14.5V9.5C4.8 8.50506 4.8007 7.81298 4.8447 7.2745C4.88783 6.74652 4.96807 6.44595 5.08338 6.21963C5.33265 5.7304 5.7304 5.33265 6.21963 5.08338Z" ></path>
  </symbol>
  <symbol  xmlns="http://www.w3.org/2000/svg" viewBox="0 0 24 24" id="brands">
    <path fill-rule="evenodd" clip-rule="evenodd" d="M12.9 1.99998C12.9 1.50292 12.4971 1.09998 12 1.09998C11.5029 1.09998 11.1 1.50292 11.1 1.99998V2.17464C8.80523 2.55963 7.00123 4.39194 6.65872 6.70083L6.58938 6.68971C6.45074 6.66722 6.34506 6.64867 6.27525 6.63598C6.24035 6.62963 6.21443 6.62475 6.19785 6.62158L6.18003 6.61814L6.1765 6.61745C5.68925 6.52025 5.21493 6.83621 5.11748 7.32347C5.02 7.81087 5.33609 8.28502 5.8235 8.3825L5.82488 8.38277L5.82719 8.38323L5.83453 8.38468L5.86001 8.3896C5.88176 8.39375 5.91297 8.39962 5.95326 8.40694C6.03385 8.42159 6.15082 8.4421 6.30125 8.4665C6.5603 8.5085 6.91881 8.56208 7.36173 8.61713C7.35396 8.72706 7.35001 8.83805 7.35001 8.94996C7.35001 11.5189 9.43108 13.6 12 13.6C14.5689 13.6 16.65 11.5189 16.65 8.94996C16.65 8.83805 16.6461 8.72706 16.6383 8.61713C17.0812 8.56208 17.4397 8.5085 17.6988 8.4665C17.8492 8.4421 17.9662 8.42159 18.0467 8.40694C18.087 8.39962 18.1182 8.39375 18.14 8.3896L18.1655 8.38468L18.1728 8.38323L18.1751 8.38277L18.1762 8.38255C18.6636 8.28507 18.98 7.81087 18.8825 7.32347C18.7851 6.83613 18.311 6.52006 17.8237 6.61741L17.82 6.61814L17.8022 6.62158C17.7856 6.62475 17.7596 6.62963 17.7247 6.63598C17.6549 6.64867 17.5493 6.66722 17.4106 6.68971L17.3413 6.70083C16.9988 4.39194 15.1948 2.55963 12.9 2.17464V1.99998ZM11.1001 4.01337C11.1073 4.50425 11.5074 4.89998 12 4.89998C12.4926 4.89998 12.8927 4.50425 12.8999 4.01337C14.272 4.36648 15.3275 5.50815 15.5546 6.92647C14.5923 7.02085 13.3752 7.09998 12 7.09998C10.6248 7.09998 9.40771 7.02085 8.44543 6.92647C8.67249 5.50815 9.72802 4.36647 11.1001 4.01337ZM9.15419 8.79404C9.15141 8.84566 9.15001 8.89765 9.15001 8.94996C9.15001 10.5248 10.4252 11.8 12 11.8C13.5748 11.8 14.85 10.5248 14.85 8.94996C14.85 8.89764 14.8486 8.84566 14.8458 8.79404C14.0104 8.85613 13.0491 8.89998 12 8.89998C10.9509 8.89998 9.98965 8.85613 9.15419 8.79404ZM5.9277 20.0808C5.88726 20.0459 5.8895 19.9615 5.89474 19.7647C5.89707 19.6769 5.90001 19.5667 5.90001 19.4285C5.90001 17.5359 8.6782 16.4 12 16.4C15.3218 16.4 18.1 17.5359 18.1 19.4285C18.1 19.5667 18.1029 19.6769 18.1053 19.7647C18.1105 19.9615 18.1128 20.0459 18.0723 20.0808C18.042 20.107 17.9876 20.1053 17.8924 20.1024C17.8561 20.1013 17.8138 20.1 17.7647 20.1H6.2353C6.18617 20.1 6.14392 20.1013 6.1076 20.1024C6.01242 20.1053 5.95804 20.107 5.9277 20.0808ZM12 14.6C7.77279 14.6 4.10001 16.1017 4.10001 19.4285C4.10001 21.1641 4.78554 21.9 6.2353 21.9H17.7647C19.2145 21.9 19.9 21.1641 19.9 19.4285C19.9 16.1017 16.2272 14.6 12 14.6Z" ></path>
  </symbol>
  <symbol  xmlns="http://www.w3.org/2000/svg" viewBox="0 0 24 24" id="orders">
    <path fill-rule="evenodd" clip-rule="evenodd" d="M4.15475 5.50189L4.05444 5.54634C3.60521 5.7451 3.1893 5.92913 2.87046 6.2346C2.59181 6.50157 2.37874 6.82943 2.24795 7.19249C2.0983 7.60792 2.09905 8.06273 2.09987 8.55396L2.09999 8.66368V15.4403L2.09986 15.5456C2.09902 16.003 2.09822 16.4394 2.24203 16.8386C2.36759 17.1871 2.57213 17.5019 2.83964 17.7582C3.14604 18.0517 3.54511 18.2282 3.96341 18.4132L4.05973 18.4559L10.4127 21.2795C10.8145 21.4585 11.1536 21.6095 11.5171 21.6709C11.8368 21.7249 12.1632 21.7249 12.4829 21.6709C12.8464 21.6095 13.1854 21.4585 13.5873 21.2795L19.9402 18.4559L20.0365 18.4132C20.4549 18.2282 20.8539 18.0517 21.1603 17.7582C21.4278 17.5019 21.6324 17.1871 21.7579 16.8386C21.9018 16.4394 21.901 16.003 21.9001 15.5456L21.9 15.4403V8.66368L21.9001 8.55395C21.9009 8.06272 21.9017 7.60792 21.752 7.19249C21.6212 6.82943 21.4082 6.50157 21.1295 6.2346C20.8107 5.92913 20.3948 5.7451 19.9455 5.54634L19.8452 5.50189L13.5873 2.72053C13.1854 2.54153 12.8464 2.39051 12.4829 2.32912C12.1632 2.27514 11.8368 2.27514 11.5171 2.32912C11.1536 2.39051 10.8145 2.54153 10.4127 2.72053L4.15475 5.50189ZM12.1831 4.10399C12.0619 4.08352 11.9381 4.08352 11.8168 4.10399C11.7061 4.12268 11.5866 4.16862 11.0659 4.40005L9.71598 5L16.5 8.01511L18.784 7L12.9341 4.40005C12.4134 4.16862 12.2938 4.12268 12.1831 4.10399ZM20.099 8.38532L16.8688 9.82096C16.8668 9.82187 16.8648 9.82278 16.8627 9.82367L13.5873 11.2795C13.3413 11.389 13.1189 11.4881 12.9 11.5626V19.6151L19.2092 16.811C19.788 16.5538 19.8666 16.5049 19.9151 16.4584C19.982 16.3944 20.0331 16.3157 20.0645 16.2285C20.0872 16.1654 20.1 16.0737 20.1 15.4403V8.66368C20.1 8.55758 20.0997 8.46549 20.099 8.38532ZM11.1 11.5626C10.8811 11.4881 10.6586 11.389 10.4127 11.2795L3.90096 8.38532C3.90031 8.46549 3.89999 8.55758 3.89999 8.66368V15.4403C3.89999 16.0737 3.91276 16.1654 3.9355 16.2285C3.96689 16.3157 4.01802 16.3944 4.0849 16.4584C4.13335 16.5049 4.212 16.5538 4.79078 16.811L11.1 19.6151V11.5626ZM5.21598 7L11.0659 9.59995C11.5866 9.83138 11.7061 9.87732 11.8168 9.89601C11.9381 9.91648 12.0619 9.91648 12.1831 9.89601C12.2938 9.87732 12.4134 9.83138 12.9341 9.59995L14.284 9L7.49999 5.98489L5.21598 7Z" ></path>
  </symbol>
  <symbol xmlns="http://www.w3.org/2000/svg" viewBox="0 0 24 24" id="more">
    <g  stroke="currentColor" stroke-linecap="round" stroke-linejoin="round" stroke-width="2">
      <circle cx="12" cy="12" r="1"></circle>
      <circle cx="19" cy="12" r="1"></circle>
      <circle cx="5" cy="12" r="1"></circle>
    </g>
  </symbol>
  <symbol  xmlns="http://www.w3.org/2000/svg" viewBox="0 0 24 24" id="chevron_right_small_24">
    <path fill-rule="evenodd" clip-rule="evenodd" d="M9.26363 6.26361C8.91216 6.61508 8.91216 7.18493 9.26363 7.5364L13.7272 12L9.26363 16.4636C8.91216 16.8151 8.91216 17.3849 9.26363 17.7364C9.6151 18.0879 10.185 18.0879 10.5364 17.7364L15.6364 12.6364C15.9879 12.2849 15.9879 11.715 15.6364 11.3636L10.5364 6.2636C10.1849 5.91213 9.6151 5.91213 9.26363 6.26361Z" ></path>
  </symbol>
  <symbol  xmlns="http://www.w3.org/2000/svg" viewBox="0 0 24 24" id="like_24">
    <path d="M12.111 5.69952C13.2389 4.64334 14.5405 4.06981 15.9918 4.00599L16.2656 4C19.4228 4 22 6.56027 22 9.71723C22 12.676 20.9647 14.144 16.4269 17.7784L15.4937 18.5182L13.1296 20.3607C12.4655 20.8783 11.5345 20.8783 10.8704 20.3607L8.18242 18.263C3.12733 14.2688 2 12.8046 2 9.71723C2 6.56027 4.57716 4 7.73438 4C9.2746 4 10.6626 4.57606 11.8723 5.69501L11.994 5.813L12.111 5.69952Z" ></path>
  </symbol>
  <symbol  xmlns="http://www.w3.org/2000/svg" viewBox="0 0 20 20" id="view_outline_20">
    <path fill-rule="evenodd" clip-rule="evenodd" d="M13 10C13 11.6569 11.6569 13 10 13C8.34315 13 7 11.6569 7 10C7 8.34315 8.34315 7 10 7C11.6569 7 13 8.34315 13 10ZM11.5 10C11.5 10.8284 10.8284 11.5 10 11.5C9.17157 11.5 8.5 10.8284 8.5 10C8.5 9.17157 9.17157 8.5 10 8.5C10.8284 8.5 11.5 9.17157 11.5 10Z" ></path>
    <path fill-rule="evenodd" clip-rule="evenodd" d="M19 10C19 13.5 14 16 10 16C6 16 1 13.5 1 10C1 6.5 6 4 10 4C14 4 19 6.5 19 10ZM17.5 10C17.5 10.9827 16.7806 12.0838 15.2215 13.0303C13.7054 13.9508 11.7245 14.5 10 14.5C8.27549 14.5 6.29462 13.9508 4.77847 13.0303C3.21944 12.0838 2.5 10.9827 2.5 10C2.5 9.01731 3.21944 7.91623 4.77847 6.96968C6.29462 6.04916 8.27549 5.5 10 5.5C11.7245 5.5 13.7054 6.04916 15.2215 6.96968C16.7806 7.91623 17.5 9.01731 17.5 10Z" ></path>
  </symbol>
  <symbol  xmlns="http://www.w3.org/2000/svg" viewBox="0 0 24 24" id="categories">
    <path d="M7.99996 5.9C7.99996 5.40294 8.40291 5 8.89996 5H20.1C20.597 5 21 5.40294 21 5.9C21 6.39706 20.597 6.8 20.1 6.8H8.89996C8.40291 6.8 7.99996 6.39706 7.99996 5.9Z" ></path>
    <path d="M7.99996 12C7.99996 11.5029 8.40291 11.1 8.89996 11.1H20.1C20.597 11.1 21 11.5029 21 12C21 12.497 20.597 12.9 20.1 12.9H8.89996C8.40291 12.9 7.99996 12.497 7.99996 12Z" ></path>
    <path d="M7.99996 18.1C7.99996 17.6029 8.40291 17.2 8.89996 17.2H20.1C20.597 17.2 21 17.6029 21 18.1C21 18.597 20.597 19 20.1 19H8.89996C8.40291 19 7.99996 18.597 7.99996 18.1Z" ></path>
    <path d="M3.89362 7.36115C3.89362 7.76978 4.09309 8 4.44947 8C4.80319 8 5 7.77266 5 7.36115V4.71942C5 4.28201 4.74468 4 4.35106 4C4.13032 4 3.88564 4.08058 3.65691 4.23022L3.28191 4.47482C3.09574 4.59568 3 4.7482 3 4.92374C3 5.15971 3.15426 5.32662 3.37234 5.32662C3.47872 5.32662 3.56383 5.29209 3.73936 5.17986L3.8883 5.08489H3.89362V7.36115Z" ></path>
    <path d="M3.0056 13.5245C3.0056 13.8069 3.21549 14 3.52332 14H5.47388C5.8041 14 6 13.8271 6 13.536C6 13.245 5.79851 13.0663 5.47388 13.0663H4.53638V13.0202L5.19683 12.415C5.64179 12.0086 5.86007 11.6052 5.86007 11.1816C5.86007 10.5043 5.2528 10 4.43843 10C3.65765 10 3 10.4957 3 11.0576C3 11.3141 3.1903 11.4986 3.45896 11.4986C3.64646 11.4986 3.76959 11.4236 3.9403 11.2046C4.08862 11.0144 4.20896 10.9452 4.37687 10.9452C4.59515 10.9452 4.74627 11.0893 4.74627 11.3026C4.74627 11.4928 4.61754 11.6772 4.32649 11.9597L3.47015 12.7896C3.12593 13.121 3.0056 13.3112 3.0056 13.5245Z" ></path>
    <path d="M2.99756 19.0719C2.99756 19.5853 3.63632 20 4.42795 20C5.34515 20 5.99756 19.5092 5.99756 18.8181C5.99756 18.3244 5.67545 17.9464 5.23323 17.921V17.842C5.6072 17.8054 5.90202 17.4556 5.90202 17.0494C5.90202 16.4288 5.3042 16 4.43887 16C3.66362 16 3.01121 16.4034 3.01121 16.8829C3.01121 17.1283 3.20229 17.3089 3.46162 17.3089C3.62267 17.3089 3.76189 17.2496 3.88473 17.1312C4.084 16.9365 4.23687 16.8604 4.42249 16.8604C4.66271 16.8604 4.83468 16.9986 4.83468 17.1904C4.83468 17.3822 4.65998 17.5233 4.42249 17.5233H4.27235C4.04578 17.5233 3.88473 17.7123 3.88473 17.952C3.88473 18.2059 4.04578 18.3865 4.27235 18.3865H4.42249C4.71184 18.3865 4.90293 18.5388 4.90293 18.7645C4.90293 18.9901 4.71184 19.1396 4.42249 19.1396C4.22049 19.1396 4.04305 19.0522 3.86289 18.8575C3.71002 18.6939 3.57354 18.6206 3.42067 18.6206C3.17499 18.6206 2.99756 18.8096 2.99756 19.0719Z" ></path>
  </symbol>
  <symbol  xmlns="http://www.w3.org/2000/svg" viewBox="0 0 24 24" id="chevron_up_small_24">
    <path fill-rule="evenodd" clip-rule="evenodd" d="M17.7364 14.7364C17.3849 15.0879 16.8151 15.0879 16.4636 14.7364L12 10.2728L7.53639 14.7364C7.18492 15.0879 6.61507 15.0879 6.2636 14.7364C5.91213 14.3849 5.91213 13.8151 6.2636 13.4636L11.3636 8.36361C11.7151 8.01214 12.285 8.01214 12.6364 8.36361L17.7364 13.4636C18.0879 13.8151 18.0879 14.3849 17.7364 14.7364Z" ></path>
  </symbol>
  <symbol  xmlns="http://www.w3.org/2000/svg" viewBox="0 0 24 24" id="location_outline_24">
    <path d="M10.7944 20.4582C10.8819 21.393 11.7107 22.0799 12.6455 21.9923C13.281 21.9328 13.8296 21.5224 14.066 20.9296L19.8962 6.31261C20.2441 5.44054 19.8191 4.4516 18.947 4.10376C18.5427 3.94246 18.0918 3.94246 17.6874 4.10376L3.07046 9.93399C2.19839 10.2818 1.77342 11.2708 2.12126 12.1428C2.35772 12.7357 2.90633 13.1461 3.5418 13.2056L10.1735 13.8266L10.7944 20.4582ZM18.1381 5.86189L12.5479 19.8772L11.8265 12.1735L4.12282 11.4521L18.1381 5.86189Z" ></path>
  </symbol>
  <symbol xmlns="http://www.w3.org/2000/svg" viewBox="0 0 24 24" id="chevron_up_down">
    <path  stroke="currentColor" stroke-linecap="round" stroke-linejoin="round" stroke-width="2" d="m7 15l5 5l5-5M7 9l5-5l5 5"></path>
  </symbol>
  <symbol  xmlns="http://www.w3.org/2000/svg" viewBox="0 0 24 24" id="products">
    <path fill-rule="evenodd" clip-rule="evenodd" d="M13.8244 3.60986C14.2664 2.87318 15.2159 2.46181 16.1065 2.87488C16.9187 3.25155 18.2172 3.99304 19.4119 5.2903C20.7665 6.76123 21.2899 8.14365 21.4846 8.86999C21.4864 8.87655 21.4883 8.88363 21.4904 8.8912C21.5177 8.99096 21.5685 9.17681 21.5535 9.41116C21.5412 9.60452 21.4788 9.82061 21.3863 9.99082C21.2727 10.1996 21.1152 10.3434 21.0333 10.4181C21.0259 10.425 21.019 10.4312 21.0129 10.4369L18.9 12.3932V17.462C18.9 17.4858 18.9001 17.5094 18.9001 17.5329C18.9005 17.9944 18.9008 18.3955 18.7457 18.8517C18.6263 19.2032 18.3498 19.658 18.0928 19.9259C17.7604 20.2724 17.4732 20.4213 17.1387 20.5947C17.1291 20.5996 17.1195 20.6046 17.1099 20.6096C15.9611 21.2055 14.1622 21.9 12 21.9C9.8379 21.9 8.03898 21.2055 6.89023 20.6096C6.88059 20.6046 6.87098 20.5996 6.86142 20.5947C6.52694 20.4213 6.23967 20.2724 5.90726 19.9259C5.6503 19.658 5.37383 19.2032 5.25436 18.8517C5.09926 18.3955 5.09961 17.9944 5.1 17.5329C5.10002 17.5094 5.10004 17.4858 5.10004 17.462V12.3933L2.98696 10.4368C2.98083 10.4312 2.97399 10.4249 2.96651 10.4181C2.88464 10.3434 2.72716 10.1996 2.61362 9.99087C2.52106 9.8207 2.45869 9.60463 2.44632 9.41131C2.43133 9.177 2.48209 8.99119 2.50934 8.89145C2.51141 8.88389 2.51334 8.87682 2.5151 8.87026C2.70974 8.14386 3.23294 6.76129 4.58784 5.29026C5.78261 3.99308 7.08101 3.2516 7.89314 2.87492C8.78382 2.46181 9.73334 2.87319 10.1754 3.60986C11.0018 4.98722 12.998 4.9872 13.8244 3.60986ZM15.3784 4.52142C15.3751 4.52507 15.3715 4.52982 15.3679 4.53593C13.8424 7.07854 10.1574 7.07849 8.63187 4.53596C8.6282 4.52985 8.6246 4.52509 8.62135 4.52143C7.95154 4.83548 6.8874 5.45052 5.91182 6.50971C4.88453 7.62505 4.46149 8.6467 4.29444 9.19434L6.61149 11.3396C6.79546 11.5099 6.90005 11.7493 6.90005 12V17.462C6.90005 18.0196 6.90872 18.1257 6.95858 18.2724C6.99333 18.3746 7.13147 18.6019 7.20623 18.6798C7.3221 18.8006 7.37394 18.8328 7.71903 19.0118C8.70788 19.5247 10.2181 20.1 12 20.1C13.782 20.1 15.2922 19.5247 16.2811 19.0118C16.6261 18.8328 16.678 18.8006 16.7939 18.6798C16.8686 18.6019 17.0068 18.3746 17.0415 18.2724C17.0914 18.1257 17.1 18.0196 17.1 17.462V12C17.1 11.7493 17.2046 11.51 17.3886 11.3396L19.7054 9.19445C19.5382 8.64674 19.115 7.62505 18.0878 6.50967C17.1124 5.45048 16.0482 4.83545 15.3784 4.52142Z" ></path>
  </symbol>
  <symbol  xmlns="http://www.w3.org/2000/svg" viewBox="0 0 24 24" id="chevron_down_small_24">
    <path fill-rule="evenodd" clip-rule="evenodd" d="M17.7364 9.26363C17.3849 8.91216 16.8151 8.91216 16.4636 9.26363L12 13.7272L7.53639 9.26363C7.18492 8.91216 6.61507 8.91216 6.2636 9.26363C5.91213 9.6151 5.91213 10.185 6.2636 10.5364L11.3636 15.6364C11.7151 15.9879 12.285 15.9879 12.6364 15.6364L17.7364 10.5364C18.0879 10.1849 18.0879 9.6151 17.7364 9.26363Z" ></path>
  </symbol>
  <symbol  xmlns="http://www.w3.org/2000/svg" viewBox="0 0 24 24" id="delete_outline_24">
    <path fill-rule="evenodd" clip-rule="evenodd" d="M14.5561 8.10175C15.0522 8.13276 15.4292 8.56005 15.3982 9.05614L14.8982 17.0561C14.8672 17.5522 14.4399 17.9293 13.9438 17.8982C13.4477 17.8672 13.0707 17.4399 13.1017 16.9439L13.6017 8.94386C13.6327 8.44777 14.06 8.07075 14.5561 8.10175Z" ></path>
    <path fill-rule="evenodd" clip-rule="evenodd" d="M9.44383 8.10175C8.94775 8.13276 8.57072 8.56005 8.60173 9.05614L9.10173 17.0561C9.13273 17.5522 9.56003 17.9293 10.0561 17.8982C10.5522 17.8672 10.9292 17.4399 10.8982 16.9439L10.3982 8.94386C10.3672 8.44777 9.93992 8.07075 9.44383 8.10175Z" ></path>
    <path fill-rule="evenodd" clip-rule="evenodd" d="M2.99998 4.1C2.50292 4.1 2.09998 4.50294 2.09998 5C2.09998 5.49706 2.50292 5.9 2.99998 5.9H4.1804L5.33503 18.216C5.38037 18.6998 5.41917 19.1138 5.47805 19.4533C5.54018 19.8116 5.63499 20.1567 5.82894 20.4827C6.12314 20.9772 6.55781 21.3731 7.07764 21.6198C7.42033 21.7825 7.77278 21.8447 8.13527 21.8731C8.47885 21.9 8.89467 21.9 9.38064 21.9H14.6193C15.1053 21.9 15.5211 21.9 15.8647 21.8731C16.2272 21.8447 16.5796 21.7825 16.9223 21.6198C17.4421 21.3731 17.8768 20.9772 18.171 20.4827C18.365 20.1567 18.4598 19.8116 18.5219 19.4533C18.5808 19.1138 18.6196 18.6998 18.6649 18.216L19.8195 5.9H21C21.497 5.9 21.9 5.49706 21.9 5C21.9 4.50294 21.497 4.1 21 4.1H15.7956C15.3893 2.37998 13.8441 1.1 12 1.1C10.1558 1.1 8.61063 2.37998 8.20434 4.1H2.99998ZM7.12405 18.0147C7.17339 18.5409 7.2062 18.8841 7.25158 19.1458C7.29507 19.3965 7.33946 19.5012 7.37589 19.5624C7.48748 19.75 7.65236 19.9001 7.84953 19.9937C7.91391 20.0243 8.02222 20.0587 8.27594 20.0786C8.54075 20.0994 8.88544 20.1 9.41401 20.1H14.5859C15.1145 20.1 15.4592 20.0994 15.724 20.0786C15.9777 20.0587 16.086 20.0243 16.1504 19.9937C16.3476 19.9001 16.5125 19.75 16.6241 19.5624C16.6605 19.5012 16.7049 19.3965 16.7484 19.1458C16.7938 18.8841 16.8266 18.5409 16.8759 18.0147L18.0117 5.9H5.9883L7.12405 18.0147ZM12 2.9C11.1623 2.9 10.4391 3.39052 10.1021 4.1H13.8979C13.5608 3.39052 12.8377 2.9 12 2.9Z" ></path>
  </symbol>
  <symbol  xmlns="http://www.w3.org/2000/svg" viewBox="0 0 20 20" id="hide_outline_20">
    <path fill-rule="evenodd" clip-rule="evenodd" d="M9.96409 5.50008C9.54988 5.50183 9.21268 5.16746 9.21093 4.75325C9.20918 4.33904 9.54354 4.00184 9.95775 4.00009C12.004 3.99576 14.1048 4.55116 15.8761 5.57766C17.5665 6.55736 19 8.06774 19 10C19 11.003 18.6069 11.9011 18.0013 12.6586C17.7427 12.9821 17.2707 13.0347 16.9472 12.7761C16.6237 12.5174 16.5711 12.0454 16.8298 11.7219C17.2721 11.1686 17.5 10.5911 17.5 10C17.5 8.86976 16.6418 7.75514 15.1239 6.87546C13.5824 5.9821 11.7449 5.49632 9.96409 5.50008Z" ></path>
    <path fill-rule="evenodd" clip-rule="evenodd" d="M4.12393 14.4223C5.84342 15.4189 8.03582 16 10 16C11.6051 16 13.3554 15.6123 14.8731 14.9338L15.7197 15.7803C16.0126 16.0732 16.4874 16.0732 16.7803 15.7803C17.0732 15.4874 17.0732 15.0126 16.7803 14.7197L5.28033 3.21967C4.98744 2.92678 4.51256 2.92678 4.21967 3.21967C3.92678 3.51256 3.92678 3.98744 4.21967 4.28033L5.04335 5.10401C4.06903 5.54898 3.17342 6.1239 2.4732 6.81589C1.60643 7.67246 1 8.75167 1 10C1 11.9323 2.43347 13.4426 4.12393 14.4223ZM8.5 10C8.5 10.8284 9.17157 11.5 10 11.5C10.3988 11.5 10.7612 11.3444 11.0299 11.0906L8.90944 8.9701C8.65562 9.23878 8.5 9.60122 8.5 10ZM7 10C7 11.6569 8.34315 13 10 13C10.813 13 11.5505 12.6766 12.0908 12.1514L13.7252 13.7859C12.5236 14.2443 11.2017 14.5 10 14.5C8.29751 14.5 6.36491 13.9874 4.87607 13.1245C3.3582 12.2449 2.5 11.1302 2.5 10C2.5 9.26893 2.85091 8.5515 3.52757 7.8828C4.18791 7.23023 5.121 6.66551 6.18727 6.24793L7.84857 7.90923C7.3234 8.44953 7 9.187 7 10Z" ></path>
  </symbol>
  <symbol  xmlns="http://www.w3.org/2000/svg" viewBox="0 0 24 24" id="like_outline_24">
    <path d="M15.9918 4.00599C14.5405 4.06981 13.2389 4.64334 12.111 5.69952L11.994 5.813L11.8723 5.69501C10.6626 4.57606 9.2746 4 7.73438 4C4.57716 4 2 6.56027 2 9.71723C2 12.8046 3.12733 14.2688 8.18242 18.263L10.8704 20.3607C11.5345 20.8783 12.4655 20.8783 13.1296 20.3607L15.4937 18.5182L16.4269 17.7784C20.9647 14.144 22 12.676 22 9.71723C22 6.56027 19.4228 4 16.2656 4L15.9918 4.00599ZM16.2656 5.8C18.4314 5.8 20.2 7.55704 20.2 9.71723L20.1951 10.0108C20.1192 12.1674 19.1332 13.352 14.686 16.8631L12.0231 18.941C12.0095 18.9515 11.9905 18.9515 11.9769 18.941L9.6128 17.0984L8.73899 16.4066C4.59678 13.0977 3.8 11.9668 3.8 9.71723C3.8 7.55704 5.56863 5.8 7.73438 5.8C9.06729 5.8 10.2408 6.41758 11.3038 7.71525C11.6662 8.15771 12.3441 8.15426 12.702 7.70812C13.7389 6.41565 14.9087 5.8 16.2656 5.8Z" ></path>
  </symbol>
  <symbol  xmlns="http://www.w3.org/2000/svg" viewBox="0 0 24 24" id="users">
    <path fill-rule="evenodd" clip-rule="evenodd" d="M8.49993 8.09998C8.49993 6.16698 10.0669 4.59998 11.9999 4.59998C13.9329 4.59998 15.4999 6.16698 15.4999 8.09998C15.4999 10.033 13.9329 11.6 11.9999 11.6C10.0669 11.6 8.49993 10.033 8.49993 8.09998ZM11.9999 9.79998C11.061 9.79998 10.2999 9.03886 10.2999 8.09998C10.2999 7.16109 11.061 6.39998 11.9999 6.39998C12.9388 6.39998 13.6999 7.16109 13.6999 8.09998C13.6999 9.03886 12.9388 9.79998 11.9999 9.79998Z" ></path>
    <path fill-rule="evenodd" clip-rule="evenodd" d="M12.0003 13.1C10.4963 13.1 9.07476 13.4536 7.99823 14.115C6.92034 14.7773 6.10031 15.8173 6.10031 17.1547C6.10031 17.9642 6.37878 18.6871 6.95152 19.1975C7.50969 19.695 8.24537 19.9 9.00031 19.9H15.0003C15.7553 19.9 16.4909 19.695 17.0491 19.1975C17.6218 18.6871 17.9003 17.9642 17.9003 17.1547C17.9003 15.8173 17.0803 14.7773 16.0024 14.115C14.9259 13.4536 13.5043 13.1 12.0003 13.1ZM7.90031 17.1547C7.90031 16.6374 8.20567 16.1002 8.94048 15.6487C9.67664 15.1964 10.7551 14.9 12.0003 14.9C13.2455 14.9 14.324 15.1964 15.0601 15.6487C15.7949 16.1002 16.1003 16.6374 16.1003 17.1547C16.1003 17.5406 15.9788 17.7403 15.8515 17.8537C15.7097 17.9801 15.4454 18.1 15.0003 18.1H9.00031C8.55525 18.1 8.29093 17.9801 8.1491 17.8537C8.02184 17.7403 7.90031 17.5406 7.90031 17.1547Z" ></path>
    <path d="M5.90335 13.7C5.90335 13.2029 5.5004 12.8 5.00334 12.8C2.99659 12.8 1.05334 14.076 1.05334 16.1571C1.05334 17.4202 1.9235 18.9 3.66045 18.9C4.1575 18.9 4.56045 18.4971 4.56045 18C4.56045 17.5029 4.1575 17.1 3.66045 17.1C3.38851 17.1 3.21062 16.9958 3.08511 16.846C2.94526 16.6791 2.85334 16.4292 2.85334 16.1571C2.85334 15.4261 3.59263 14.6 5.00334 14.6C5.5004 14.6 5.90335 14.1971 5.90335 13.7Z" ></path>
    <path d="M6.31446 5.45905C6.80652 5.38875 7.2624 5.73065 7.3327 6.22271C7.403 6.71477 7.0611 7.17065 6.56904 7.24095C5.9611 7.32781 5.50017 7.84759 5.50017 8.46644C5.50017 9.14569 6.05517 9.70472 6.75017 9.70472C7.24723 9.70472 7.65017 10.1077 7.65017 10.6047C7.65017 11.1018 7.24723 11.5047 6.75017 11.5047C5.07035 11.5047 3.70017 10.1491 3.70017 8.46644C3.70017 6.93173 4.83981 5.66973 6.31446 5.45905Z" ></path>
    <path d="M18.0965 13.7C18.0965 13.2029 18.4995 12.8 18.9965 12.8C21.0033 12.8 22.9465 14.076 22.9465 16.1571C22.9465 17.4202 22.0764 18.9 20.3394 18.9C19.8424 18.9 19.4394 18.4971 19.4394 18C19.4394 17.5029 19.8424 17.1 20.3394 17.1C20.6113 17.1 20.7892 16.9958 20.9147 16.846C21.0546 16.6791 21.1465 16.4292 21.1465 16.1571C21.1465 15.4261 20.4072 14.6 18.9965 14.6C18.4995 14.6 18.0965 14.1971 18.0965 13.7Z" ></path>
    <path d="M17.6859 5.45905C17.1938 5.38875 16.7379 5.73065 16.6676 6.22271C16.5973 6.71477 16.9392 7.17065 17.4313 7.24095C18.0392 7.32781 18.5002 7.84759 18.5002 8.46644C18.5002 9.14569 17.9452 9.70472 17.2502 9.70472C16.7531 9.70472 16.3502 10.1077 16.3502 10.6047C16.3502 11.1018 16.7531 11.5047 17.2502 11.5047C18.93 11.5047 20.3002 10.1491 20.3002 8.46644C20.3002 6.93173 19.1605 5.66973 17.6859 5.45905Z" ></path>
  </symbol>
  <symbol xmlns="http://www.w3.org/2000/svg" viewBox="0 0 24 24" id="moon">
    <path  stroke="currentColor" stroke-linecap="round" stroke-linejoin="round" stroke-width="2" d="M12 3a6 6 0 0 0 9 9a9 9 0 1 1-9-9m7 0v4m2-2h-4"></path>
  </symbol>
</svg>