<svg xmlns="http://www.w3.org/2000/svg" width="120" height="120"><g fill="none" fill-rule="evenodd"><path d="M0 120h120V.001H0z"/><path fill="#FFD7D2" d="M18.5 83.5h10v15H31l12.5-15H81l11.505-13.806L18.5 60.607z"/><path stroke="#000" stroke-width="2" d="M81 83.5H43.5L31 98.5h-2.5v-15h-10v-35l12.5-15h62.5v35L81 83.5zM68.5 59h5v-5h-5v5zm-15 0h5v-5h-5v5zm-15 0h5v-5h-5v5z"/><path fill="#F93C00" d="M77 28c0 8.837 7.163 16 16 16s16-7.163 16-16-7.163-16-16-16-16 7.163-16 16"/><path stroke="#FFF" stroke-width="2" d="M101 29a8 8 0 0 1-16 0h16zm-16-6h6m4 0h6"/></g></svg>