<svg width="24" height="24" viewBox="0 0 24 24" fill="none" xmlns="http://www.w3.org/2000/svg">
<path fill-rule="evenodd" clip-rule="evenodd" d="M12.9 1.99998C12.9 1.50292 12.4971 1.09998 12 1.09998C11.5029 1.09998 11.1 1.50292 11.1 1.99998V2.17464C8.80523 2.55963 7.00123 4.39194 6.65872 6.70083L6.58938 6.68971C6.45074 6.66722 6.34506 6.64867 6.27525 6.63598C6.24035 6.62963 6.21443 6.62475 6.19785 6.62158L6.18003 6.61814L6.1765 6.61745C5.68925 6.52025 5.21493 6.83621 5.11748 7.32347C5.02 7.81087 5.33609 8.28502 5.8235 8.3825L5.82488 8.38277L5.82719 8.38323L5.83453 8.38468L5.86001 8.3896C5.88176 8.39375 5.91297 8.39962 5.95326 8.40694C6.03385 8.42159 6.15082 8.4421 6.30125 8.4665C6.5603 8.5085 6.91881 8.56208 7.36173 8.61713C7.35396 8.72706 7.35001 8.83805 7.35001 8.94996C7.35001 11.5189 9.43108 13.6 12 13.6C14.5689 13.6 16.65 11.5189 16.65 8.94996C16.65 8.83805 16.6461 8.72706 16.6383 8.61713C17.0812 8.56208 17.4397 8.5085 17.6988 8.4665C17.8492 8.4421 17.9662 8.42159 18.0467 8.40694C18.087 8.39962 18.1182 8.39375 18.14 8.3896L18.1655 8.38468L18.1728 8.38323L18.1751 8.38277L18.1762 8.38255C18.6636 8.28507 18.98 7.81087 18.8825 7.32347C18.7851 6.83613 18.311 6.52006 17.8237 6.61741L17.82 6.61814L17.8022 6.62158C17.7856 6.62475 17.7596 6.62963 17.7247 6.63598C17.6549 6.64867 17.5493 6.66722 17.4106 6.68971L17.3413 6.70083C16.9988 4.39194 15.1948 2.55963 12.9 2.17464V1.99998ZM11.1001 4.01337C11.1073 4.50425 11.5074 4.89998 12 4.89998C12.4926 4.89998 12.8927 4.50425 12.8999 4.01337C14.272 4.36648 15.3275 5.50815 15.5546 6.92647C14.5923 7.02085 13.3752 7.09998 12 7.09998C10.6248 7.09998 9.40771 7.02085 8.44543 6.92647C8.67249 5.50815 9.72802 4.36647 11.1001 4.01337ZM9.15419 8.79404C9.15141 8.84566 9.15001 8.89765 9.15001 8.94996C9.15001 10.5248 10.4252 11.8 12 11.8C13.5748 11.8 14.85 10.5248 14.85 8.94996C14.85 8.89764 14.8486 8.84566 14.8458 8.79404C14.0104 8.85613 13.0491 8.89998 12 8.89998C10.9509 8.89998 9.98965 8.85613 9.15419 8.79404ZM5.9277 20.0808C5.88726 20.0459 5.8895 19.9615 5.89474 19.7647C5.89707 19.6769 5.90001 19.5667 5.90001 19.4285C5.90001 17.5359 8.6782 16.4 12 16.4C15.3218 16.4 18.1 17.5359 18.1 19.4285C18.1 19.5667 18.1029 19.6769 18.1053 19.7647C18.1105 19.9615 18.1128 20.0459 18.0723 20.0808C18.042 20.107 17.9876 20.1053 17.8924 20.1024C17.8561 20.1013 17.8138 20.1 17.7647 20.1H6.2353C6.18617 20.1 6.14392 20.1013 6.1076 20.1024C6.01242 20.1053 5.95804 20.107 5.9277 20.0808ZM12 14.6C7.77279 14.6 4.10001 16.1017 4.10001 19.4285C4.10001 21.1641 4.78554 21.9 6.2353 21.9H17.7647C19.2145 21.9 19.9 21.1641 19.9 19.4285C19.9 16.1017 16.2272 14.6 12 14.6Z" fill="#2688EB"/>
</svg>
