<svg width="24" height="24" viewBox="0 0 24 24" fill="none" xmlns="http://www.w3.org/2000/svg">
<path d="M7.99996 5.9C7.99996 5.40294 8.40291 5 8.89996 5H20.1C20.597 5 21 5.40294 21 5.9C21 6.39706 20.597 6.8 20.1 6.8H8.89996C8.40291 6.8 7.99996 6.39706 7.99996 5.9Z" fill="#2688EB"/>
<path d="M7.99996 12C7.99996 11.5029 8.40291 11.1 8.89996 11.1H20.1C20.597 11.1 21 11.5029 21 12C21 12.497 20.597 12.9 20.1 12.9H8.89996C8.40291 12.9 7.99996 12.497 7.99996 12Z" fill="#2688EB"/>
<path d="M7.99996 18.1C7.99996 17.6029 8.40291 17.2 8.89996 17.2H20.1C20.597 17.2 21 17.6029 21 18.1C21 18.597 20.597 19 20.1 19H8.89996C8.40291 19 7.99996 18.597 7.99996 18.1Z" fill="#2688EB"/>
<path d="M3.89362 7.36115C3.89362 7.76978 4.09309 8 4.44947 8C4.80319 8 5 7.77266 5 7.36115V4.71942C5 4.28201 4.74468 4 4.35106 4C4.13032 4 3.88564 4.08058 3.65691 4.23022L3.28191 4.47482C3.09574 4.59568 3 4.7482 3 4.92374C3 5.15971 3.15426 5.32662 3.37234 5.32662C3.47872 5.32662 3.56383 5.29209 3.73936 5.17986L3.8883 5.08489H3.89362V7.36115Z" fill="#2688EB"/>
<path d="M3.0056 13.5245C3.0056 13.8069 3.21549 14 3.52332 14H5.47388C5.8041 14 6 13.8271 6 13.536C6 13.245 5.79851 13.0663 5.47388 13.0663H4.53638V13.0202L5.19683 12.415C5.64179 12.0086 5.86007 11.6052 5.86007 11.1816C5.86007 10.5043 5.2528 10 4.43843 10C3.65765 10 3 10.4957 3 11.0576C3 11.3141 3.1903 11.4986 3.45896 11.4986C3.64646 11.4986 3.76959 11.4236 3.9403 11.2046C4.08862 11.0144 4.20896 10.9452 4.37687 10.9452C4.59515 10.9452 4.74627 11.0893 4.74627 11.3026C4.74627 11.4928 4.61754 11.6772 4.32649 11.9597L3.47015 12.7896C3.12593 13.121 3.0056 13.3112 3.0056 13.5245Z" fill="#2688EB"/>
<path d="M2.99756 19.0719C2.99756 19.5853 3.63632 20 4.42795 20C5.34515 20 5.99756 19.5092 5.99756 18.8181C5.99756 18.3244 5.67545 17.9464 5.23323 17.921V17.842C5.6072 17.8054 5.90202 17.4556 5.90202 17.0494C5.90202 16.4288 5.3042 16 4.43887 16C3.66362 16 3.01121 16.4034 3.01121 16.8829C3.01121 17.1283 3.20229 17.3089 3.46162 17.3089C3.62267 17.3089 3.76189 17.2496 3.88473 17.1312C4.084 16.9365 4.23687 16.8604 4.42249 16.8604C4.66271 16.8604 4.83468 16.9986 4.83468 17.1904C4.83468 17.3822 4.65998 17.5233 4.42249 17.5233H4.27235C4.04578 17.5233 3.88473 17.7123 3.88473 17.952C3.88473 18.2059 4.04578 18.3865 4.27235 18.3865H4.42249C4.71184 18.3865 4.90293 18.5388 4.90293 18.7645C4.90293 18.9901 4.71184 19.1396 4.42249 19.1396C4.22049 19.1396 4.04305 19.0522 3.86289 18.8575C3.71002 18.6939 3.57354 18.6206 3.42067 18.6206C3.17499 18.6206 2.99756 18.8096 2.99756 19.0719Z" fill="#2688EB"/>
</svg>
