<svg width="24" height="24" viewBox="0 0 24 24" fill="none" xmlns="http://www.w3.org/2000/svg">
<path fill-rule="evenodd" clip-rule="evenodd" d="M5.06949 3.54034C5.83906 3.12901 6.59619 3.00076 8.18587 3.00076H11.1033C11.6005 3.00076 12.0036 3.4037 12.0036 3.90076C12.0036 4.39781 11.6005 4.80076 11.1033 4.80076H8.18587C6.67918 4.80076 6.28787 4.93029 5.91858 5.12767C5.57633 5.3106 5.31314 5.57364 5.13013 5.91564C4.93268 6.28463 4.80307 6.67562 4.80307 8.18137V15.8201C4.80307 17.3259 4.93268 17.7169 5.13013 18.0859C5.31314 18.4279 5.57633 18.6909 5.91858 18.8738C6.28787 19.0712 6.67918 19.2008 8.18587 19.2008H11.1033C11.6005 19.2008 12.0036 19.6037 12.0036 20.1008C12.0036 20.5978 11.6005 21.0008 11.1033 21.0008H8.18587C6.59619 21.0008 5.83906 20.8725 5.06949 20.4612C4.41345 20.1105 3.89318 19.5906 3.5423 18.9349C3.13068 18.1657 3.00235 17.4089 3.00235 15.8201V8.18137C3.00235 6.59261 3.13068 5.83583 3.5423 5.06663C3.89318 4.41093 4.41345 3.89098 5.06949 3.54034Z" fill="#2688EB"/>
<path fill-rule="evenodd" clip-rule="evenodd" d="M16.3611 8.26058C16.7127 7.9091 17.2828 7.9091 17.6344 8.26057L20.7386 11.3636C20.9075 11.5324 21.0023 11.7613 21.0023 12C21.0023 12.2387 20.9075 12.4676 20.7386 12.6364L17.6344 15.7394C17.2828 16.0909 16.7127 16.0909 16.3611 15.7394C16.0095 15.3879 16.0095 14.8181 16.3611 14.4666L17.9283 12.9H10.9032C10.4059 12.9 10.0028 12.497 10.0028 12C10.0028 11.5029 10.4059 11.1 10.9032 11.1H17.9283L16.3611 9.53337C16.0095 9.1819 16.0095 8.61205 16.3611 8.26058Z" fill="#2688EB"/>
</svg>
