<svg width="24" height="24" viewBox="0 0 24 24" fill="none" xmlns="http://www.w3.org/2000/svg">
<path fill-rule="evenodd" clip-rule="evenodd" d="M12.1854 4.85073C12.0649 4.81157 11.9351 4.81157 11.8146 4.85073C11.8013 4.85503 11.7452 4.87474 11.5965 5.00102C11.4397 5.13411 11.2468 5.32598 10.9393 5.6335L5.57365 10.9992C5.19746 11.3754 5.11717 11.4638 5.06209 11.5537C5.00178 11.6522 4.95734 11.7594 4.93039 11.8717C4.90578 11.9742 4.9 12.0935 4.9 12.6255V17.6C4.9 18.0349 4.9007 18.307 4.91744 18.5119C4.93333 18.7064 4.95907 18.76 4.96539 18.7724C5.02292 18.8853 5.11471 18.9771 5.2276 19.0346C5.24001 19.041 5.29362 19.0667 5.48809 19.0826C5.69307 19.0993 5.96511 19.1 6.4 19.1H9.1V15.9C9.1 14.2984 10.3984 13 12 13C13.6016 13 14.9 14.2984 14.9 15.9V19.1H17.6C18.0349 19.1 18.3069 19.0993 18.5119 19.0826C18.7064 19.0667 18.76 19.041 18.7724 19.0346C18.8853 18.9771 18.9771 18.8853 19.0346 18.7724C19.0409 18.76 19.0667 18.7064 19.0825 18.5119C19.0993 18.307 19.1 18.0349 19.1 17.6V12.6255C19.1 12.0935 19.0942 11.9742 19.0696 11.8717C19.0427 11.7594 18.9982 11.6521 18.9379 11.5537C18.8828 11.4638 18.8025 11.3754 18.4263 10.9992L13.0607 5.6335C12.7531 5.32598 12.5603 5.13411 12.4035 5.00102C12.2548 4.87474 12.1987 4.85503 12.1854 4.85073ZM11.2584 3.13883C11.7404 2.98221 12.2596 2.98221 12.7416 3.13883C13.0709 3.2458 13.3345 3.43025 13.5684 3.6288C13.7881 3.81527 14.0331 4.06029 14.3099 4.33714L19.6991 9.7264C19.718 9.74531 19.7368 9.76401 19.7553 9.78253C20.0463 10.0731 20.2919 10.3182 20.4727 10.6132C20.6317 10.8727 20.7488 11.1556 20.8199 11.4515C20.9006 11.7879 20.9004 12.1349 20.9 12.5461C20.9 12.5723 20.9 12.5988 20.9 12.6255V17.6334C20.9 18.0249 20.9 18.3714 20.8766 18.6585C20.8516 18.9643 20.7956 19.2812 20.6384 19.5896C20.4083 20.0412 20.0412 20.4084 19.5896 20.6385C19.2811 20.7956 18.9643 20.8516 18.6585 20.8766C18.3713 20.9001 18.0248 20.9001 17.6333 20.9H14.1887C13.5874 20.9 13.1 20.4126 13.1 19.8114V15.9C13.1 15.2925 12.6075 14.8 12 14.8C11.3925 14.8 10.9 15.2925 10.9 15.9V19.8114C10.9 20.4126 10.4126 20.9 9.81134 20.9H6.36666C5.97515 20.9001 5.62866 20.9001 5.34151 20.8766C5.03573 20.8516 4.71887 20.7956 4.41042 20.6385C3.95883 20.4084 3.59168 20.0412 3.36158 19.5896C3.20441 19.2812 3.1484 18.9643 3.12342 18.6585C3.09996 18.3714 3.09998 18.0249 3.09999 17.6334L3.1 12.6255C3.1 12.5988 3.09998 12.5723 3.09995 12.5461C3.09963 12.1349 3.09936 11.7879 3.18012 11.4515C3.25116 11.1556 3.36834 10.8727 3.52734 10.6132C3.7081 10.3183 3.95368 10.0731 4.24467 9.78253C4.26321 9.76401 4.28194 9.74531 4.30086 9.7264L9.69011 4.33713C9.96694 4.06028 10.2119 3.81526 10.4316 3.62881C10.6655 3.43025 10.9291 3.2458 11.2584 3.13883Z" fill="#2688EB"/>
</svg>
