<svg width="24" height="24" viewBox="0 0 24 24" fill="none" xmlns="http://www.w3.org/2000/svg">
<path d="M12.002 1C12.4993 1 12.9024 1.40294 12.9024 1.9V4.1C12.9024 4.59706 12.4993 5 12.002 5C11.5048 5 11.1017 4.59706 11.1017 4.1V1.9C11.1017 1.40294 11.5048 1 12.002 1Z" fill="#2688EB"/>
<path d="M12.0044 19C12.5016 19 12.9047 19.4029 12.9047 19.9V22.1C12.9047 22.5971 12.5016 23 12.0044 23C11.5072 23 11.1041 22.5971 11.1041 22.1V19.9C11.1041 19.4029 11.5072 19 12.0044 19Z" fill="#2688EB"/>
<path d="M4.66111 8.88423C5.09174 9.13276 5.64237 8.98528 5.891 8.55481C6.13962 8.12435 5.99208 7.57392 5.56145 7.32539L3.35506 6.12786C2.92443 5.87934 2.37379 6.02682 2.12517 6.45729C1.87655 6.88775 2.02409 7.43818 2.45472 7.68671L4.66111 8.88423Z" fill="#2688EB"/>
<path d="M21.8836 17.5469C21.635 17.9773 21.0844 18.1248 20.6537 17.8763L18.4492 16.6836C18.0186 16.4351 17.8711 15.8846 18.1197 15.4542C18.3683 15.0237 18.9189 14.8762 19.3496 15.1247L21.5541 16.3174C21.9847 16.566 22.1322 17.1164 21.8836 17.5469Z" fill="#2688EB"/>
<path d="M18.4545 7.31745C18.0239 7.56598 17.8764 8.11641 18.125 8.54688C18.3736 8.97734 18.9242 9.12483 19.3549 8.8763L21.5521 7.68048C21.9828 7.43195 22.1303 6.88152 21.8817 6.45105C21.6331 6.02059 21.0824 5.8731 20.6518 6.12163L18.4545 7.31745Z" fill="#2688EB"/>
<path d="M2.1284 17.5469C1.87978 17.1164 2.02732 16.566 2.45795 16.3175L4.6491 15.1167C5.07972 14.8682 5.63036 15.0157 5.87898 15.4462C6.12761 15.8766 5.98006 16.4271 5.54944 16.6756L3.35829 17.8763C2.92766 18.1248 2.37702 17.9773 2.1284 17.5469Z" fill="#2688EB"/>
<path fill-rule="evenodd" clip-rule="evenodd" d="M12.0044 7C10.6232 7 9.37272 7.55964 8.46756 8.46447C7.56239 9.36929 7.00254 10.6193 7.00254 12C7.00254 13.3807 7.56239 14.6307 8.46756 15.5355C9.37272 16.4404 10.6232 17 12.0044 17C13.3857 17 14.6361 16.4404 15.5413 15.5355C16.4465 14.6307 17.0063 13.3807 17.0063 12C17.0063 10.6193 16.4465 9.36929 15.5413 8.46447C14.6361 7.55964 13.3857 7 12.0044 7ZM9.74083 9.73726C10.3221 9.1562 11.1199 8.8 12.0044 8.8C12.8889 8.8 13.6867 9.1562 14.268 9.73726C14.8493 10.3183 15.2056 11.1158 15.2056 12C15.2056 12.8842 14.8493 13.6817 14.268 14.2627C13.6867 14.8438 12.8889 15.2 12.0044 15.2C11.1199 15.2 10.3221 14.8438 9.74083 14.2627C9.15955 13.6817 8.80322 12.8842 8.80322 12C8.80322 11.1158 9.15955 10.3183 9.74083 9.73726Z" fill="#2688EB"/>
</svg>
